<?xml version="1.0" encoding="UTF-8"?>
<svg version="1.1" xmlns="http://www.w3.org/2000/svg" width="512" height="512">
<path d="M0 0 C168.96 0 337.92 0 512 0 C512 168.96 512 337.92 512 512 C343.04 512 174.08 512 0 512 C0 343.04 0 174.08 0 0 Z " fill="#38B5FE" transform="translate(0,0)"/>
<path d="M0 0 C1.82618676 0.99561125 1.82618676 0.99561125 4.33691406 1.89355469 C7.4068931 3.18617744 9.98690431 4.99238509 12.71191406 6.89355469 C11.69163195 13.31095997 8.67147886 18.82450957 5.89941406 24.64355469 C5.36509766 25.805 4.83078125 26.96644531 4.28027344 28.16308594 C3.75626953 29.26523438 3.23226562 30.36738281 2.69238281 31.50292969 C2.21696045 32.51323242 1.74153809 33.52353516 1.25170898 34.56445312 C-0.28808594 36.89355469 -0.28808594 36.89355469 -2.25146484 37.80419922 C-5.72992294 37.95681438 -8.72002285 36.37704397 -11.85058594 35.01855469 C-13.18501644 34.45817064 -14.51964465 33.89825712 -15.85449219 33.33886719 C-17.55412109 32.6234375 -17.55412109 32.6234375 -19.28808594 31.89355469 C-32.72906274 27.41322909 -50.50424289 30.25539278 -62.99902344 36.17871094 C-74.62690366 42.44659232 -81.81409675 53.28606892 -85.66308594 65.76855469 C-87.57538848 75.2314951 -86.94136523 84.98132092 -83.28808594 93.89355469 C-82.94777344 94.725 -82.60746094 95.55644531 -82.25683594 96.41308594 C-76.55130333 108.96140259 -67.34756333 116.45489349 -54.60058594 121.26855469 C-39.44357966 125.51466638 -22.64300587 124.15399274 -8.28808594 117.89355469 C-6.61753134 116.90006331 -4.94977524 115.90180389 -3.28808594 114.89355469 C-2.62808594 114.89355469 -1.96808594 114.89355469 -1.28808594 114.89355469 C0.742089 118.78056443 2.75351704 122.67653896 4.74829102 126.58178711 C5.42911472 127.90828374 6.11494873 129.23222146 6.8059082 130.5534668 C7.79966939 132.45585052 8.7749023 134.36678372 9.74707031 136.28027344 C10.33883057 137.42713623 10.93059082 138.57399902 11.5402832 139.75561523 C12.79510471 143.11636138 12.99194301 144.57378987 11.71191406 147.89355469 C3.20244432 153.96633651 -7.23002344 156.6646522 -17.28808594 158.89355469 C-18.19816406 159.11914062 -19.10824219 159.34472656 -20.04589844 159.57714844 C-28.68731083 161.49305791 -37.49018217 161.0677706 -46.28808594 160.89355469 C-46.29195312 159.76820313 -46.29195312 159.76820313 -46.29589844 158.62011719 C-46.59406569 150.72862387 -48.10607568 144.98213693 -53.28808594 138.89355469 C-55.79905897 136.81688514 -58.36649774 135.31675482 -61.28808594 133.89355469 C-62.21878906 133.36503906 -63.14949219 132.83652344 -64.10839844 132.29199219 C-70.12021289 129.64797551 -77.47837732 129.77587992 -83.76464844 131.62011719 C-87.12295365 133.214988 -89.76632017 135.24988601 -92.53808594 137.70605469 C-95.28808594 139.89355469 -95.28808594 139.89355469 -97.13574219 139.85449219 C-100.24851047 138.46476261 -102.24304293 136.20336199 -104.47558594 133.70605469 C-105.19415771 132.90735962 -105.19415771 132.90735962 -105.92724609 132.0925293 C-114.01314499 122.85896307 -123.67700078 110.10032846 -124.43261719 97.47949219 C-123.96500363 92.76806502 -122.84728233 88.35215776 -119.35058594 85.08105469 C-117.28808594 83.89355469 -117.28808594 83.89355469 -114.28808594 83.89355469 C-113.68554894 90.88298386 -113.68554894 90.88298386 -115.40136719 93.76074219 C-116.62554182 95.20216471 -117.95086822 96.55633697 -119.28808594 97.89355469 C-117.30808594 96.90355469 -117.30808594 96.90355469 -115.28808594 95.89355469 C-115.16433594 96.53292969 -115.04058594 97.17230469 -114.91308594 97.83105469 C-114.70683594 98.51167969 -114.50058594 99.19230469 -114.28808594 99.89355469 C-113.62808594 100.22355469 -112.96808594 100.55355469 -112.28808594 100.89355469 C-112.28808594 99.24355469 -112.28808594 97.59355469 -112.28808594 95.89355469 C-110.63808594 96.55355469 -108.98808594 97.21355469 -107.28808594 97.89355469 C-108.52558594 96.65605469 -108.52558594 96.65605469 -109.78808594 95.39355469 C-112.04951774 92.73079837 -112.63164107 91.00915147 -112.60058594 87.51855469 C-112.49746094 86.32230469 -112.39433594 85.12605469 -112.28808594 83.89355469 C-109.37291302 84.96756576 -107.50998418 85.67165644 -105.28808594 87.89355469 C-104.95808594 88.90417969 -104.62808594 89.91480469 -104.28808594 90.95605469 C-103.63056038 94.01506274 -103.63056038 94.01506274 -101.28808594 94.89355469 C-101.28808594 93.57355469 -101.28808594 92.25355469 -101.28808594 90.89355469 C-99.96808594 90.89355469 -98.64808594 90.89355469 -97.28808594 90.89355469 C-97.28808594 90.23355469 -97.28808594 89.57355469 -97.28808594 88.89355469 C-98.77308594 88.39855469 -98.77308594 88.39855469 -100.28808594 87.89355469 C-100.28808594 87.23355469 -100.28808594 86.57355469 -100.28808594 85.89355469 C-98.80308594 85.39855469 -98.80308594 85.39855469 -97.28808594 84.89355469 C-96.95808594 84.23355469 -96.62808594 83.57355469 -96.28808594 82.89355469 C-97.15433594 83.24417969 -98.02058594 83.59480469 -98.91308594 83.95605469 C-102.6054609 84.9817144 -104.64944086 85.05130539 -108.28808594 83.89355469 C-109.66308594 81.83105469 -109.66308594 81.83105469 -110.28808594 79.89355469 C-108.35058594 78.26855469 -108.35058594 78.26855469 -105.28808594 76.89355469 C-102.18374794 77.22060033 -99.27114855 77.99018714 -96.28808594 78.89355469 C-96.28808594 78.23355469 -96.28808594 77.57355469 -96.28808594 76.89355469 C-97.93808594 76.56355469 -99.58808594 76.23355469 -101.28808594 75.89355469 C-100.29808594 74.90355469 -99.30808594 73.91355469 -98.28808594 72.89355469 C-99.60808594 72.89355469 -100.92808594 72.89355469 -102.28808594 72.89355469 C-101.95808594 71.24355469 -101.62808594 69.59355469 -101.28808594 67.89355469 C-102.27808594 67.89355469 -103.26808594 67.89355469 -104.28808594 67.89355469 C-104.32933594 68.96605469 -104.37058594 70.03855469 -104.41308594 71.14355469 C-105.28808594 74.89355469 -105.28808594 74.89355469 -108.28808594 77.33105469 C-111.28808594 78.89355469 -111.28808594 78.89355469 -112.28808594 78.89355469 C-112.34231541 77.45647378 -112.38098317 76.01880007 -112.41308594 74.58105469 C-112.43628906 73.78054687 -112.45949219 72.98003906 -112.48339844 72.15527344 C-112.28808594 69.89355469 -112.28808594 69.89355469 -110.28808594 66.89355469 C-110.94808594 66.89355469 -111.60808594 66.89355469 -112.28808594 66.89355469 C-112.28808594 65.24355469 -112.28808594 63.59355469 -112.28808594 61.89355469 C-112.94808594 61.89355469 -113.60808594 61.89355469 -114.28808594 61.89355469 C-114.28808594 63.87355469 -114.28808594 65.85355469 -114.28808594 67.89355469 C-115.93808594 66.90355469 -117.58808594 65.91355469 -119.28808594 64.89355469 C-118.46308594 65.71855469 -117.63808594 66.54355469 -116.78808594 67.39355469 C-114.52665414 70.056311 -113.94453081 71.7779579 -113.97558594 75.26855469 C-114.07871094 76.46480469 -114.18183594 77.66105469 -114.28808594 78.89355469 C-117.26002444 77.76903742 -119.62249281 76.67061677 -122.28808594 74.89355469 C-122.97558594 71.26855469 -122.97558594 71.26855469 -123.28808594 67.89355469 C-123.94808594 67.89355469 -124.60808594 67.89355469 -125.28808594 67.89355469 C-125.28808594 69.54355469 -125.28808594 71.19355469 -125.28808594 72.89355469 C-125.94808594 72.56355469 -126.60808594 72.23355469 -127.28808594 71.89355469 C-125.85573631 49.56865706 -115.9984104 30.79228039 -99.85058594 15.51855469 C-73.78364244 -7.0484915 -31.70792284 -16.90554063 0 0 Z " fill="#010304" transform="translate(422.2880859375,143.1064453125)"/>
<path d="M0 0 C11.55 0 23.1 0 35 0 C37 4 37 4 37 7 C35.96875 7.391875 34.9375 7.78375 33.875 8.1875 C28.58991201 10.45559444 23.95185861 13.98184036 21 19 C18.08578209 27.80765488 17.06583544 37.85013651 21 46.5 C25.14147726 53.49165121 30.7675646 58.37398101 38.64453125 60.5703125 C45.7668879 61.86958154 52.12034838 61.0384153 59 59 C62.51668607 65.70444775 65.31391851 72.59480402 68.0625 79.64453125 C68.5356665 80.85010178 69.00883301 82.0556723 69.49633789 83.29777527 C70.49365231 85.83931435 71.48853281 88.38178688 72.48144531 90.92504883 C73.74194489 94.15359542 75.0068422 97.3803948 76.27339172 100.60657215 C77.49644558 103.72273292 78.71697506 106.83987903 79.9375 109.95703125 C80.38552979 111.10009232 80.83355957 112.24315338 81.29516602 113.42085266 C83.65917256 119.47694774 85.93969018 125.55435749 88.14447021 131.67008972 C89.10812627 134.29446608 90.15980966 136.8644962 91.2890625 139.421875 C91.67320312 140.30230469 92.05734375 141.18273437 92.453125 142.08984375 C93.24140936 143.87924925 94.03048577 145.66830601 94.8203125 147.45703125 C95.201875 148.33230469 95.5834375 149.20757812 95.9765625 150.109375 C96.31768066 150.88249023 96.65879883 151.65560547 97.01025391 152.45214844 C98.21786227 155.56083143 99.08380492 158.79331722 100 162 C87.13 162 74.26 162 61 162 C51.8173207 143.63464141 51.8173207 143.63464141 52 135 C53.96484375 132.63671875 53.96484375 132.63671875 56 131 C56 132.65 56 134.3 56 136 C56.99 136 57.98 136 59 136 C59.33 134.68 59.66 133.36 60 132 C61.98 132.99 61.98 132.99 64 134 C63.175 133.175 62.35 132.35 61.5 131.5 C59.2385682 128.83724368 58.65644487 127.11559679 58.6875 123.625 C58.790625 122.42875 58.89375 121.2325 59 120 C61.8125 120.5 61.8125 120.5 65 122 C66.42335176 124.55473394 67.25247141 127.18037462 68 130 C68.495 128.02 68.495 128.02 69 126 C70.65 126.33 72.3 126.66 74 127 C74 126.34 74 125.68 74 125 C72.02 124.01 72.02 124.01 70 123 C73 121 73 121 75 121 C75 120.34 75 119.68 75 119 C74.33613281 119.17917969 73.67226562 119.35835938 72.98828125 119.54296875 C65.72892938 121.29157175 65.72892938 121.29157175 61.875 119.75 C61.25625 119.1725 60.6375 118.595 60 118 C60 117.34 60 116.68 60 116 C62.83862303 114.10758464 64.93484939 112.89088701 68.40234375 113.24609375 C70.63136155 113.75669024 72.81541847 114.32520704 75 115 C75 114.34 75 113.68 75 113 C73.35 112.67 71.7 112.34 70 112 C71.32 110.35 72.64 108.7 74 107 C72.35 107.66 70.7 108.32 69 109 C69 107.35 69 105.7 69 104 C68.34 104 67.68 104 67 104 C66.9071875 105.6396875 66.9071875 105.6396875 66.8125 107.3125 C66 111 66 111 63.5625 112.9375 C61 114 61 114 59 114 C58.397463 107.01057082 58.397463 107.01057082 60.11328125 104.1328125 C61.33745588 102.69138998 62.66278229 101.33721771 64 100 C63.01 100 62.02 100 61 100 C61 100.66 61 101.32 61 102 C60.34 102 59.68 102 59 102 C59 100.68 59 99.36 59 98 C58.01 98 57.02 98 56 98 C56 99.65 56 101.3 56 103 C54.35 102.01 52.7 101.02 51 100 C51 100.99 51 101.98 51 103 C51.9590625 103.4640625 51.9590625 103.4640625 52.9375 103.9375 C55 105 55 105 56 106 C56.14115161 108.67058851 56.04247107 111.32432238 56 114 C52.99581131 113.67522284 51.42029035 113.42029035 49.25 111.25 C47.89615784 108.81308412 47.38181347 106.74905699 47 104 C46.34 104 45.68 104 45 104 C45.33 105.65 45.66 107.3 46 109 C44.35 108.34 42.7 107.68 41 107 C42.32 108.65 43.64 110.3 45 112 C44.360625 112.12375 43.72125 112.2475 43.0625 112.375 C42.381875 112.58125 41.70125 112.7875 41 113 C40.67 113.66 40.34 114.32 40 115 C40.59167969 114.82082031 41.18335938 114.64164062 41.79296875 114.45703125 C48.32761578 112.69811321 48.32761578 112.69811321 52.0625 114.375 C52.701875 114.91125 53.34125 115.4475 54 116 C53 119 53 119 51.3125 120.25 C47.32089377 121.54457499 43.87303535 120.29101178 40 119 C40 119.66 40 120.32 40 121 C41.65 121.33 43.3 121.66 45 122 C43.68 123.65 42.36 125.3 41 127 C42.65 126.34 44.3 125.68 46 125 C45.67 126.65 45.34 128.3 45 130 C27.18 130 9.36 130 -9 130 C-8.67 128.02 -8.34 126.04 -8 124 C-7.77066282 120.25137958 -7.76933088 116.50502357 -7.75 112.75 C-7.729375 111.76386719 -7.70875 110.77773437 -7.6875 109.76171875 C-7.62062775 97.07270886 -11.67072015 86.20893177 -20.625 77.0625 C-22.96225862 74.86516595 -25.34223065 72.80728316 -28 71 C-27.50185101 67.01480808 -26.01250509 63.9642308 -24.171875 60.4296875 C-22.30784731 56.56493675 -20.84830132 52.55458799 -19.34375 48.5390625 C-17.62104489 44.00193799 -15.80891646 39.50333122 -14 35 C-12.84812046 32.12273089 -11.69756339 29.24493316 -10.546875 26.3671875 C-9.92189619 24.80467902 -9.29689591 23.24217914 -8.671875 21.6796875 C-8.35669922 20.89174805 -8.04152344 20.10380859 -7.71679688 19.29199219 C-5.14453125 12.86132812 -2.57226562 6.43066406 0 0 Z " fill="#010406" transform="translate(135,139)"/>
<path d="M0 0 C12.21 0 24.42 0 37 0 C37 53.46 37 106.92 37 162 C24.79 162 12.58 162 0 162 C0 122.4 0 82.8 0 42 C1.32 41.34 2.64 40.68 4 40 C4.33 41.32 4.66 42.64 5 44 C5.37125 42.906875 5.7425 41.81375 6.125 40.6875 C7.4798799 37.45411511 7.97658038 37.01423545 11.1875 35.0625 C12.115625 34.711875 13.04375 34.36125 14 34 C14.76681614 41.66816143 14.76681614 41.66816143 12.88671875 44.93359375 C11.5 46.5625 11.5 46.5625 9 49 C10.65 48.01 12.3 47.02 14 46 C14 47.65 14 49.3 14 51 C14.66 51 15.32 51 16 51 C16 49.35 16 47.7 16 46 C17.32 46.66 18.64 47.32 20 48 C18.84826645 45.53199953 17.95216435 43.95216435 16 42 C15.73008094 39.31160615 15.91262643 36.70858064 16 34 C18.88377142 35.05760182 21.51530402 36.17718921 24 38 C25 41.75 25 41.75 25 45 C25.66 45 26.32 45 27 45 C26.505 42.525 26.505 42.525 26 40 C27.32 40.33 28.64 40.66 30 41 C29.34 39.68 28.68 38.36 28 37 C29.485 36.505 29.485 36.505 31 36 C29.1746875 36.0928125 29.1746875 36.0928125 27.3125 36.1875 C23.43480651 36.19438756 21.08123073 35.50349997 18 33 C18 32.34 18 31.68 18 31 C21.10437804 28.46005433 22.57312004 27.97056 26.625 28.25 C30 29 30 29 33 30 C33 29.34 33 28.68 33 28 C31.35 27.67 29.7 27.34 28 27 C28.33 26.34 28.66 25.68 29 25 C29.66 25 30.32 25 31 25 C31 24.34 31 23.68 31 23 C29.35 23.33 27.7 23.66 26 24 C26.33 22.35 26.66 20.7 27 19 C26.34 19 25.68 19 25 19 C24.773125 20.0725 24.54625 21.145 24.3125 22.25 C22.86351073 26.38996934 21.66335219 27.71040488 18 30 C17.34 30 16.68 30 16 30 C15.2769556 23.13107822 15.2769556 23.13107822 17.3359375 19.91015625 C18.83010422 18.19502121 20.35318077 16.56839927 22 15 C21.01 15 20.02 15 19 15 C19 15.66 19 16.32 19 17 C18.34 17 17.68 17 17 17 C16.67 16.01 16.34 15.02 16 14 C15.34 13.67 14.68 13.34 14 13 C14 14.65 14 16.3 14 18 C12.35 17.01 10.7 16.02 9 15 C9.825 15.804375 10.65 16.60875 11.5 17.4375 C14.47253985 20.92918765 14.43263066 23.79502351 14.17578125 28.2421875 C14.11777344 28.82226562 14.05976563 29.40234375 14 30 C8.54255319 28.05957447 8.54255319 28.05957447 7.00390625 25.0546875 C6.51109948 23.62988867 6.05479935 22.19179773 5.640625 20.7421875 C5.14809286 18.78857567 5.14809286 18.78857567 3 18 C3 19.32 3 20.64 3 22 C2.01 22 1.02 22 0 22 C0 14.74 0 7.48 0 0 Z " fill="#020406" transform="translate(242,139)"/>
<path d="M0 0 C0.66 0 1.32 0 2 0 C6.32585401 10.60754628 10.53873034 21.25029319 14.5 32 C14.84998047 32.93666504 15.19996094 33.87333008 15.56054688 34.83837891 C15.88087891 35.71671387 16.20121094 36.59504883 16.53125 37.5 C16.81548828 38.2734375 17.09972656 39.046875 17.39257812 39.84375 C18 42 18 42 18 46 C6.45 46 -5.1 46 -17 46 C-16.2023274 41.21396438 -15.11793715 37.16717605 -13.41796875 32.6953125 C-13.16251785 32.01250214 -12.90706696 31.32969177 -12.64387512 30.62619019 C-12.10435056 29.18810808 -11.56212148 27.75103802 -11.01733398 26.31494141 C-10.19358471 24.14105761 -9.38035912 21.96345202 -8.56835938 19.78515625 C-6.02767035 13.01600358 -3.43777221 6.3761102 0 0 Z " fill="#35ACF2" transform="translate(152,190)"/>
<path d="M0 0 C0.99 0.33 1.98 0.66 3 1 C3 1.99 3 2.98 3 4 C3.66 4 4.32 4 5 4 C5 3.34 5 2.68 5 2 C5.99 2 6.98 2 8 2 C6.32258065 5.74193548 6.32258065 5.74193548 4.4375 7.25 C2.06970784 10.13252959 2.29987295 13.34155006 2 17 C7.29681029 13.80043861 7.29681029 13.80043861 10.4375 8.6875 C10.623125 7.800625 10.80875 6.91375 11 6 C11.66 6 12.32 6 13 6 C12.67 7.65 12.34 9.3 12 11 C13.65 10.67 15.3 10.34 17 10 C17 10.66 17 11.32 17 12 C16.34 12.33 15.68 12.66 15 13 C16.32 13.66 17.64 14.32 19 15 C19 15.66 19 16.32 19 17 C18.33613281 16.90460938 17.67226563 16.80921875 16.98828125 16.7109375 C10.28354475 15.79684678 10.28354475 15.79684678 4 18 C4 18.66 4 19.32 4 20 C8.64849515 22.3992233 12.91086074 22.19957409 18 22 C17.01 22.99 16.02 23.98 15 25 C15.66 26.32 16.32 27.64 17 29 C15.35 28.34 13.7 27.68 12 27 C12.33 28.65 12.66 30.3 13 32 C12.34 32 11.68 32 11 32 C10.79375 30.906875 10.5875 29.81375 10.375 28.6875 C9.34336062 24.7714341 9.34336062 24.7714341 5.875 23.0625 C4.92625 22.711875 3.9775 22.36125 3 22 C2.51510163 27.13725982 2.51510163 27.13725982 5 31.4375 C5.66 31.953125 6.32 32.46875 7 33 C6.67 33.99 6.34 34.98 6 36 C4.68 35.01 3.36 34.02 2 33 C2 34.65 2 36.3 2 38 C1.34 38 0.68 38 0 38 C-0.33 36.68 -0.66 35.36 -1 34 C-2.32 34.66 -3.64 35.32 -5 36 C-3.84826645 33.53199953 -2.95216435 31.95216435 -1 30 C-0.75787127 28.01871492 -0.75787127 28.01871492 -0.875 25.875 C-0.91625 24.59625 -0.9575 23.3175 -1 22 C-4.60153162 23.65475777 -6.2974477 25.08925078 -7.8125 28.6875 C-8.204375 29.780625 -8.59625 30.87375 -9 32 C-9.66 30.68 -10.32 29.36 -11 28 C-11.66 28.33 -12.32 28.66 -13 29 C-13.33 68.6 -13.66 108.2 -14 149 C-14.33 149 -14.66 149 -15 149 C-15 108.74 -15 68.48 -15 27 C-14.34 26.67 -13.68 26.34 -13 26 C-12.67 25.01 -12.34 24.02 -12 23 C-12.66 22.67 -13.32 22.34 -14 22 C-14 20.35 -14 18.7 -14 17 C-14.66 17 -15.32 17 -16 17 C-16 16.34 -16 15.68 -16 15 C-14.68 14.34 -13.36 13.68 -12 13 C-12 12.34 -12 11.68 -12 11 C-11.34 11 -10.68 11 -10 11 C-10 9.35 -10 7.7 -10 6 C-9.34 6 -8.68 6 -8 6 C-7.74476563 6.83144531 -7.74476563 6.83144531 -7.484375 7.6796875 C-6.09174014 12.25122977 -6.09174014 12.25122977 -2.8125 15.5 C-2.214375 15.665 -1.61625 15.83 -1 16 C-0.38392879 10.32262949 -0.38392879 10.32262949 -3 5.625 C-3.66 5.08875 -4.32 4.5525 -5 4 C-5 3.34 -5 2.68 -5 2 C-3.68 2.66 -2.36 3.32 -1 4 C-0.67 2.68 -0.34 1.36 0 0 Z " fill="#3E89B7" transform="translate(256,152)"/>
<path d="M0 0 C0.99 0 1.98 0 3 0 C3 1.32 3 2.64 3 4 C3.66 4 4.32 4 5 4 C5 3.34 5 2.68 5 2 C5.99 2 6.98 2 8 2 C6.84826645 4.46800047 5.95216435 6.04783565 4 8 C3.54188325 9.97235333 3.54188325 9.97235333 3.375 12.125 C3.25125 13.40375 3.1275 14.6825 3 16 C6.01565163 14.99425024 6.01565163 14.99425024 9 13 C10.44967902 9.4306283 10.44967902 9.4306283 11 6 C11.66 6 12.32 6 13 6 C13.33 7.32 13.66 8.64 14 10 C15.32 9.67 16.64 9.34 18 9 C17 12 17 12 15 13 C16.32 13.66 17.64 14.32 19 15 C19 15.66 19 16.32 19 17 C18.12988281 16.85691406 18.12988281 16.85691406 17.2421875 16.7109375 C12.23911581 16.00093063 8.75977038 15.92522829 4 18 C4 18.66 4 19.32 4 20 C8.94816714 22.80396138 13.61682285 21.77350507 19 21 C19 21.66 19 22.32 19 23 C17.02 23.99 17.02 23.99 15 25 C16.485 25.99 16.485 25.99 18 27 C18 27.66 18 28.32 18 29 C16.35 28.67 14.7 28.34 13 28 C13 29.65 13 31.3 13 33 C12.34 32.67 11.68 32.34 11 32 C10.7525 30.88625 10.505 29.7725 10.25 28.625 C9.34338168 24.75741634 9.34338168 24.75741634 5.875 23.0625 C4.92625 22.711875 3.9775 22.36125 3 22 C3.21113405 27.70518685 3.21113405 27.70518685 6.0625 32.375 C6.701875 32.91125 7.34125 33.4475 8 34 C8 34.66 8 35.32 8 36 C6.68 35.67 5.36 35.34 4 35 C3.67 35.99 3.34 36.98 3 38 C2.01 38 1.02 38 0 38 C-0.33 36.68 -0.66 35.36 -1 34 C-3.30143236 37.45214853 -3.13833854 38.23479324 -2.625 42.1875 C-2.51414063 43.08855469 -2.40328125 43.98960937 -2.2890625 44.91796875 C-2.19367188 45.60503906 -2.09828125 46.29210937 -2 47 C-3.74949772 44.37575342 -4.65389981 42.44272784 -5.625 39.5 C-5.88539063 38.7265625 -6.14578125 37.953125 -6.4140625 37.15625 C-7 35 -7 35 -7 32 C-8.98 32.495 -8.98 32.495 -11 33 C-11 31.35 -11 29.7 -11 28 C-12.32 28.33 -13.64 28.66 -15 29 C-14.67 28.01 -14.34 27.02 -14 26 C-13.34 25.67 -12.68 25.34 -12 25 C-13.32 24.34 -14.64 23.68 -16 23 C-16 22.34 -16 21.68 -16 21 C-15.09507812 21.14308594 -15.09507812 21.14308594 -14.171875 21.2890625 C-13.37265625 21.39992188 -12.5734375 21.51078125 -11.75 21.625 C-10.96109375 21.74101562 -10.1721875 21.85703125 -9.359375 21.9765625 C-6.6393221 22.00358289 -5.26514161 21.47334432 -3 20 C-2.67 19.34 -2.34 18.68 -2 18 C-7.16569441 16.20782031 -10.51053913 15.87970186 -16 17 C-15.505 15.515 -15.505 15.515 -15 14 C-14.01 13.67 -13.02 13.34 -12 13 C-12.99 12.34 -13.98 11.68 -15 11 C-15 10.34 -15 9.68 -15 9 C-12.525 9.99 -12.525 9.99 -10 11 C-10.33 9.35 -10.66 7.7 -11 6 C-10.34 6 -9.68 6 -9 6 C-8.76925781 6.55429688 -8.53851563 7.10859375 -8.30078125 7.6796875 C-6.25432116 12.43231515 -6.25432116 12.43231515 -2.25 15.5 C-1.5075 15.665 -0.765 15.83 0 16 C-0.06516272 10.41864363 -0.06516272 10.41864363 -3.0625 6.1875 C-3.701875 5.795625 -4.34125 5.40375 -5 5 C-5 4.01 -5 3.02 -5 2 C-3.68 2.66 -2.36 3.32 -1 4 C-0.67 2.68 -0.34 1.36 0 0 Z " fill="#6A9CC2" transform="translate(191,237)"/>
<path d="M0 0 C0.66 0 1.32 0 2 0 C2.33 1.32 2.66 2.64 3 4 C3.66 3.34 4.32 2.68 5 2 C5.99 2.33 6.98 2.66 8 3 C7.360625 3.495 6.72125 3.99 6.0625 4.5 C3.18484731 7.98806387 3.29769264 10.53461041 3 15 C6.01565163 13.99425024 6.01565163 13.99425024 9 12 C10.44967902 8.4306283 10.44967902 8.4306283 11 5 C11.66 5 12.32 5 13 5 C13 6.65 13 8.3 13 10 C14.65 9.67 16.3 9.34 18 9 C17.01 10.32 16.02 11.64 15 13 C16.32 13.33 17.64 13.66 19 14 C19 14.66 19 15.32 19 16 C18.22914063 15.98839844 17.45828125 15.97679687 16.6640625 15.96484375 C15.66117187 15.95582031 14.65828125 15.94679688 13.625 15.9375 C12.12839844 15.92009766 12.12839844 15.92009766 10.6015625 15.90234375 C8.01567547 15.81993398 8.01567547 15.81993398 6 17 C6.66 18.32 7.32 19.64 8 21 C11.3 21 14.6 21 18 21 C18 21.66 18 22.32 18 23 C17.34 23.66 16.68 24.32 16 25 C16.66 25.33 17.32 25.66 18 26 C18 26.99 18 27.98 18 29 C16.68 28.67 15.36 28.34 14 28 C14 29.32 14 30.64 14 32 C13.01 31.67 12.02 31.34 11 31 C10.731875 29.865625 10.46375 28.73125 10.1875 27.5625 C9.795625 26.386875 9.40375 25.21125 9 24 C5.99405579 22.46853622 5.99405579 22.46853622 3 22 C3.06516272 27.58135637 3.06516272 27.58135637 6.0625 31.8125 C6.701875 32.204375 7.34125 32.59625 8 33 C8 33.99 8 34.98 8 36 C6.68 35.34 5.36 34.68 4 34 C3.67 35.32 3.34 36.64 3 38 C1.515 37.505 1.515 37.505 0 37 C-0.495 35.515 -0.495 35.515 -1 34 C-2.32 34.66 -3.64 35.32 -5 36 C-5 35.01 -5 34.02 -5 33 C-4.360625 32.443125 -3.72125 31.88625 -3.0625 31.3125 C-0.0992264 27.99004172 -0.29253618 25.38804275 0 21 C-0.78375 21.495 -1.5675 21.99 -2.375 22.5 C-5 24 -5 24 -7 24 C-7.12375 25.134375 -7.2475 26.26875 -7.375 27.4375 C-7.58125 28.613125 -7.7875 29.78875 -8 31 C-8.66 31.33 -9.32 31.66 -10 32 C-10 30.35 -10 28.7 -10 27 C-11.65 27.66 -13.3 28.32 -15 29 C-15 28.01 -15 27.02 -15 26 C-14.34 25.67 -13.68 25.34 -13 25 C-13.99 24.34 -14.98 23.68 -16 23 C-16 22.34 -16 21.68 -16 21 C-15.32453125 21.03480469 -14.6490625 21.06960938 -13.953125 21.10546875 C-13.06109375 21.13253906 -12.1690625 21.15960938 -11.25 21.1875 C-10.36828125 21.22230469 -9.4865625 21.25710938 -8.578125 21.29296875 C-5.55328417 20.94923684 -4.24416398 19.99772541 -2 18 C-5.21182149 16.09391902 -7.53882603 15.77733753 -11.25 15.875 C-12.58804687 15.90207031 -12.58804687 15.90207031 -13.953125 15.9296875 C-14.62859375 15.95289063 -15.3040625 15.97609375 -16 16 C-16 15.34 -16 14.68 -16 14 C-15.01 13.34 -14.02 12.68 -13 12 C-13.66 11.01 -14.32 10.02 -15 9 C-13.35 9.33 -11.7 9.66 -10 10 C-10 8.35 -10 6.7 -10 5 C-9.34 5 -8.68 5 -8 5 C-7.608125 6.258125 -7.21625 7.51625 -6.8125 8.8125 C-5.63175004 12.01982562 -5.16221855 12.87927922 -2.3125 15 C-1.549375 15.33 -0.78625 15.66 0 16 C-0.38728235 10.28758534 -0.87010523 7.26311718 -5 3 C-4.01 2.67 -3.02 2.34 -2 2 C-1.67 2.33 -1.34 2.66 -1 3 C-0.67 2.01 -0.34 1.02 0 0 Z " fill="#74C4FA" transform="translate(347,339)"/>
<path d="M0 0 C0.66 0 1.32 0 2 0 C2.33 1.32 2.66 2.64 3 4 C3.66 3.34 4.32 2.68 5 2 C5.99 2.33 6.98 2.66 8 3 C7.195625 3.66 6.39125 4.32 5.5625 5 C2.24851076 8.87979228 2.25422975 11.00014825 2 16 C6.7694272 13.99777969 6.7694272 13.99777969 9.91015625 10.17578125 C10.52593403 8.04770412 10.52593403 8.04770412 11 5 C11.66 5 12.32 5 13 5 C13 6.65 13 8.3 13 10 C14.65 9.67 16.3 9.34 18 9 C17.01 9.99 16.02 10.98 15 12 C16.32 12.66 17.64 13.32 19 14 C19 14.66 19 15.32 19 16 C18.24074219 15.96519531 17.48148437 15.93039062 16.69921875 15.89453125 C15.70535156 15.86746094 14.71148437 15.84039062 13.6875 15.8125 C12.70136719 15.77769531 11.71523438 15.74289062 10.69921875 15.70703125 C7.95425611 15.75721892 7.95425611 15.75721892 6.14453125 17.51171875 C5.76683594 18.00285156 5.38914062 18.49398438 5 19 C8.31371 21.20914 9.3446021 21.22481553 13.1875 21.125 C14.53908203 21.09792969 14.53908203 21.09792969 15.91796875 21.0703125 C16.60503906 21.04710937 17.29210937 21.02390625 18 21 C18 21.66 18 22.32 18 23 C16.68 23 15.36 23 14 23 C14.33 23.66 14.66 24.32 15 25 C15.99 25.33 16.98 25.66 18 26 C18 26.99 18 27.98 18 29 C16.35 28.34 14.7 27.68 13 27 C13 28.65 13 30.3 13 32 C12.34 32 11.68 32 11 32 C10.79375 30.906875 10.5875 29.81375 10.375 28.6875 C9.34336062 24.7714341 9.34336062 24.7714341 5.875 23.0625 C4.92625 22.711875 3.9775 22.36125 3 22 C3.1971087 27.354594 3.1971087 27.354594 5.5625 31.875 C6.036875 32.24625 6.51125 32.6175 7 33 C7 33.66 7 34.32 7 35 C5.68 34.34 4.36 33.68 3 33 C2.67 34.65 2.34 36.3 2 38 C0 37 0 37 -1 34 C-2.32 34.66 -3.64 35.32 -5 36 C-4.36241611 32.30201342 -4.36241611 32.30201342 -2.5 30.75 C-0.0451213 27.88597485 -0.30301288 24.69675715 0 21 C-0.78375 21.66 -1.5675 22.32 -2.375 23 C-5 25 -5 25 -7 25 C-7.33 27.31 -7.66 29.62 -8 32 C-8.99 32 -9.98 32 -11 32 C-11 30.68 -11 29.36 -11 28 C-12.32 28.33 -13.64 28.66 -15 29 C-14.79375 28.4225 -14.5875 27.845 -14.375 27.25 C-13.91044829 24.46268972 -14.66815382 23.41969001 -16 21 C-14.98679687 21.06960938 -14.98679687 21.06960938 -13.953125 21.140625 C-8.26595069 21.51867616 -8.26595069 21.51867616 -3.375 19 C-2.92125 18.34 -2.4675 17.68 -2 17 C-6.72314313 16.22887459 -11.21521178 15.90235126 -16 16 C-16 15.34 -16 14.68 -16 14 C-15.01 13.34 -14.02 12.68 -13 12 C-13.66 11.67 -14.32 11.34 -15 11 C-15 10.34 -15 9.68 -15 9 C-13.35 9.33 -11.7 9.66 -10 10 C-10 8.35 -10 6.7 -10 5 C-9.34 5 -8.68 5 -8 5 C-7.67 7.64 -7.34 10.28 -7 13 C-5.02 13.66 -3.04 14.32 -1 15 C-0.66582071 11.6675213 -0.66582071 11.6675213 -1 8 C-2.89584109 5.68622853 -2.89584109 5.68622853 -5 4 C-5 3.34 -5 2.68 -5 2 C-2.525 2.99 -2.525 2.99 0 4 C0 2.68 0 1.36 0 0 Z " fill="#73C3FA" transform="translate(471,467)"/>
<path d="M0 0 C0.66 0 1.32 0 2 0 C2.33 0.99 2.66 1.98 3 3 C4.32 2.34 5.64 1.68 7 1 C5.84826645 3.46800047 4.95216435 5.04783565 3 7 C2.83322718 10.58343976 2.83322718 10.58343976 3 14 C4.98 13.34 6.96 12.68 9 12 C9.33 9.69 9.66 7.38 10 5 C10.99 4.67 11.98 4.34 13 4 C13 5.32 13 6.64 13 8 C14.32 8 15.64 8 17 8 C17 8.66 17 9.32 17 10 C16.34 10 15.68 10 15 10 C15.495 10.45375 15.99 10.9075 16.5 11.375 C18 13 18 13 18 15 C17.32453125 14.98839844 16.6490625 14.97679687 15.953125 14.96484375 C15.06109375 14.95582031 14.1690625 14.94679688 13.25 14.9375 C12.36828125 14.92589844 11.4865625 14.91429687 10.578125 14.90234375 C8.2181162 14.99173802 6.25501476 15.33087179 4 16 C5.36483958 18.20808542 5.36483958 18.20808542 8 20 C11.3580469 20.35791096 14.63536357 20.23115823 18 20 C18 20.66 18 21.32 18 22 C16.68 22 15.36 22 14 22 C14.495 22.45375 14.99 22.9075 15.5 23.375 C17 25 17 25 17 27 C15.68 27 14.36 27 13 27 C13 28.32 13 29.64 13 31 C12.01 31 11.02 31 10 31 C9.67 28.36 9.34 25.72 9 23 C8.38125 22.855625 7.7625 22.71125 7.125 22.5625 C5 22 5 22 3 21 C2.88679144 26.08303686 2.88679144 26.08303686 4 31 C4.99 31 5.98 31 7 31 C7 32.32 7 33.64 7 35 C5.68 34.34 4.36 33.68 3 33 C2.67 34.32 2.34 35.64 2 37 C1.34 37 0.68 37 0 37 C-0.33 35.35 -0.66 33.7 -1 32 C-2.32 32.66 -3.64 33.32 -5 34 C-3.125 30.125 -3.125 30.125 -2 29 C-1.76924918 27.65252916 -1.58846937 26.29622435 -1.4375 24.9375 C-1.293125 23.638125 -1.14875 22.33875 -1 21 C-4.01565163 22.00574976 -4.01565163 22.00574976 -7 24 C-8.44967902 27.5693717 -8.44967902 27.5693717 -9 31 C-9.66 31 -10.32 31 -11 31 C-11 29.68 -11 28.36 -11 27 C-12.65 27.33 -14.3 27.66 -16 28 C-15.34 26.68 -14.68 25.36 -14 24 C-14.66 23.67 -15.32 23.34 -16 23 C-16 22.01 -16 21.02 -16 20 C-15.38511719 20.03480469 -14.77023438 20.06960937 -14.13671875 20.10546875 C-13.32847656 20.13253906 -12.52023438 20.15960937 -11.6875 20.1875 C-10.88699219 20.22230469 -10.08648437 20.25710937 -9.26171875 20.29296875 C-6.52148416 19.93801608 -5.70828921 19.10633718 -4 17 C-7.20380017 14.86413322 -8.01939967 14.76867825 -11.6875 14.875 C-12.49574219 14.89304687 -13.30398437 14.91109375 -14.13671875 14.9296875 C-14.75160156 14.95289063 -15.36648437 14.97609375 -16 15 C-15.4740625 14.1028125 -15.4740625 14.1028125 -14.9375 13.1875 C-13.66695302 10.89186786 -13.66695302 10.89186786 -15 8 C-13.68 8 -12.36 8 -11 8 C-11 6.68 -11 5.36 -11 4 C-10.34 4 -9.68 4 -9 4 C-8.62875 5.258125 -8.2575 6.51625 -7.875 7.8125 C-6.58463012 11.33452407 -6.17727896 11.88876614 -2.8125 14 C-1.4203125 14.495 -1.4203125 14.495 0 15 C-0.21113405 9.29481315 -0.21113405 9.29481315 -3.0625 4.625 C-3.701875 4.08875 -4.34125 3.5525 -5 3 C-5 2.34 -5 1.68 -5 1 C-3.68 1.66 -2.36 2.32 -1 3 C-0.67 2.01 -0.34 1.02 0 0 Z " fill="#74C4FA" transform="translate(39,0)"/>
<path d="M0 0 C0.66 0 1.32 0 2 0 C2 1.32 2 2.64 2 4 C3.65 3.34 5.3 2.68 7 2 C5.84826645 4.46800047 4.95216435 6.04783565 3 8 C2.83322718 11.58343976 2.83322718 11.58343976 3 15 C4.98 14.34 6.96 13.68 9 13 C9.33 10.69 9.66 8.38 10 6 C10.99 5.67 11.98 5.34 13 5 C13 6.32 13 7.64 13 9 C14.32 9.33 15.64 9.66 17 10 C16.34 10.66 15.68 11.32 15 12 C16.485 12.99 16.485 12.99 18 14 C18 14.66 18 15.32 18 16 C17.32453125 15.98839844 16.6490625 15.97679687 15.953125 15.96484375 C15.06109375 15.95582031 14.1690625 15.94679688 13.25 15.9375 C12.36828125 15.92589844 11.4865625 15.91429687 10.578125 15.90234375 C8.2181162 15.99173802 6.25501476 16.33087179 4 17 C5.3442285 19.26959882 5.3442285 19.26959882 8 21 C11.40060685 21.05863115 14.65559323 20.58718592 18 20 C18 20.99 18 21.98 18 23 C17.01 23.66 16.02 24.32 15 25 C15.66 25.33 16.32 25.66 17 26 C17 26.66 17 27.32 17 28 C15.68 28 14.36 28 13 28 C13 29.32 13 30.64 13 32 C12.01 32 11.02 32 10 32 C9.67 29.36 9.34 26.72 9 24 C8.38125 23.855625 7.7625 23.71125 7.125 23.5625 C5 23 5 23 3 22 C3 24.64 3 27.28 3 30 C3.99 30.33 4.98 30.66 6 31 C6.33 32.65 6.66 34.3 7 36 C5.68 35.34 4.36 34.68 3 34 C2.67 35.32 2.34 36.64 2 38 C1.34 38 0.68 38 0 38 C-0.33 36.35 -0.66 34.7 -1 33 C-2.32 33.66 -3.64 34.32 -5 35 C-3.84826645 32.53199953 -2.95216435 30.95216435 -1 29 C-0.54188325 27.02764667 -0.54188325 27.02764667 -0.375 24.875 C-0.25125 23.59625 -0.1275 22.3175 0 21 C-4.7694272 23.00222031 -4.7694272 23.00222031 -7.91015625 26.82421875 C-8.52593403 28.95229588 -8.52593403 28.95229588 -9 32 C-9.99 32 -10.98 32 -12 32 C-12 30.68 -12 29.36 -12 28 C-13.32 28.33 -14.64 28.66 -16 29 C-16 28.01 -16 27.02 -16 26 C-15.34 25.67 -14.68 25.34 -14 25 C-14.66 24.67 -15.32 24.34 -16 24 C-16 23.01 -16 22.02 -16 21 C-15.39671875 21.03480469 -14.7934375 21.06960938 -14.171875 21.10546875 C-9.07474512 21.3514449 -9.07474512 21.3514449 -4.4375 19.5 C-3.963125 19.005 -3.48875 18.51 -3 18 C-6.06246747 16.21590198 -8.22079273 15.77119979 -11.75 15.875 C-12.94882813 15.90207031 -12.94882813 15.90207031 -14.171875 15.9296875 C-15.07679688 15.96449219 -15.07679688 15.96449219 -16 16 C-16 15.34 -16 14.68 -16 14 C-15.01 13.34 -14.02 12.68 -13 12 C-13.66 11.67 -14.32 11.34 -15 11 C-15 10.34 -15 9.68 -15 9 C-13.68 9 -12.36 9 -11 9 C-11 7.68 -11 6.36 -11 5 C-10.34 5 -9.68 5 -9 5 C-8.773125 6.27875 -8.54625 7.5575 -8.3125 8.875 C-7.82983454 11.07065787 -7.82983454 11.07065787 -7 13 C-4.59867226 14.54488317 -4.59867226 14.54488317 -2 15 C-1.34 15.33 -0.68 15.66 0 16 C-0.21113405 10.29481315 -0.21113405 10.29481315 -3.0625 5.625 C-3.701875 5.08875 -4.34125 4.5525 -5 4 C-5 3.34 -5 2.68 -5 2 C-3.68 2.66 -2.36 3.32 -1 4 C-0.67 2.68 -0.34 1.36 0 0 Z " fill="#77C5FA" transform="translate(168,339)"/>
<path d="M0 0 C0.66 0 1.32 0 2 0 C2 1.65 2 3.3 2 5 C3.32 4.67 4.64 4.34 6 4 C5.505 4.495 5.01 4.99 4.5 5.5 C2.33021905 9.11630158 2.79111581 11.82231616 3 16 C5.52246503 14.97296178 5.52246503 14.97296178 8 13 C9.36900354 9.42003741 9.36900354 9.42003741 10 6 C10.99 6 11.98 6 13 6 C12.67 7.65 12.34 9.3 12 11 C13.65 10.67 15.3 10.34 17 10 C16.01 10.99 15.02 11.98 14 13 C15.32 13.66 16.64 14.32 18 15 C18 15.66 18 16.32 18 17 C17.40832031 16.90460938 16.81664062 16.80921875 16.20703125 16.7109375 C11.55619775 16.05845515 8.27685626 15.65462721 4 18 C5.3442285 20.26959882 5.3442285 20.26959882 8 22 C11.40060685 22.05863115 14.65559323 21.58718592 18 21 C17.505 22.485 17.505 22.485 17 24 C16.01 24 15.02 24 14 24 C14.495 24.45375 14.99 24.9075 15.5 25.375 C17 27 17 27 17 29 C15.68 29 14.36 29 13 29 C13 30.32 13 31.64 13 33 C11.515 32.505 11.515 32.505 10 32 C9.54625 30.88625 9.0925 29.7725 8.625 28.625 C6.87453852 24.72012439 5.79794824 23.74500324 2 22 C2.21113405 27.70518685 2.21113405 27.70518685 5.0625 32.375 C5.701875 32.91125 6.34125 33.4475 7 34 C7 34.66 7 35.32 7 36 C5.35 35.34 3.7 34.68 2 34 C2 35.65 2 37.3 2 39 C0.515 38.505 0.515 38.505 -1 38 C-1.495 36.515 -1.495 36.515 -2 35 C-3.485 35.495 -3.485 35.495 -5 36 C-3.84826645 33.53199953 -2.95216435 31.95216435 -1 30 C-0.54188325 28.02764667 -0.54188325 28.02764667 -0.375 25.875 C-0.25125 24.59625 -0.1275 23.3175 0 22 C-0.928125 22.495 -1.85625 22.99 -2.8125 23.5 C-6 25 -6 25 -9 25 C-9.66 24.67 -10.32 24.34 -11 24 C-11 24.66 -11 25.32 -11 26 C-11.66 26 -12.32 26 -13 26 C-13.33 23.03 -13.66 20.06 -14 17 C-14.99 17 -15.98 17 -17 17 C-17 16.34 -17 15.68 -17 15 C-15.68 14.67 -14.36 14.34 -13 14 C-13 13.34 -13 12.68 -13 12 C-13.99 11.67 -14.98 11.34 -16 11 C-15.34 10.34 -14.68 9.68 -14 9 C-13.34 9.33 -12.68 9.66 -12 10 C-11.67 8.68 -11.34 7.36 -11 6 C-10.34 6 -9.68 6 -9 6 C-8.814375 7.0725 -8.62875 8.145 -8.4375 9.25 C-7.76923865 11.69039144 -7.3033734 12.7568809 -5.30859375 14.35546875 C-3.58340249 15.32087881 -1.79400985 16.16943988 0 17 C-0.21113405 11.29481315 -0.21113405 11.29481315 -3.0625 6.625 C-3.701875 6.08875 -4.34125 5.5525 -5 5 C-5 4.34 -5 3.68 -5 3 C-3.68 3.66 -2.36 4.32 -1 5 C-0.67 3.35 -0.34 1.7 0 0 Z " fill="#5D8AAA" transform="translate(308,205)"/>
<path d="M0 0 C0.66 0 1.32 0 2 0 C2.33 0.99 2.66 1.98 3 3 C3.66 2.34 4.32 1.68 5 1 C5.99 1.33 6.98 1.66 8 2 C7.195625 2.66 6.39125 3.32 5.5625 4 C2.24851076 7.87979228 2.25422975 10.00014825 2 15 C6.7694272 12.99777969 6.7694272 12.99777969 9.91015625 9.17578125 C10.52593403 7.04770412 10.52593403 7.04770412 11 4 C11.66 4 12.32 4 13 4 C13 5.65 13 7.3 13 9 C14.65 8.67 16.3 8.34 18 8 C17.01 9.32 16.02 10.64 15 12 C16.32 12.33 17.64 12.66 19 13 C19 13.66 19 14.32 19 15 C18.24074219 14.96519531 17.48148437 14.93039062 16.69921875 14.89453125 C15.70535156 14.86746094 14.71148437 14.84039062 13.6875 14.8125 C12.70136719 14.77769531 11.71523438 14.74289062 10.69921875 14.70703125 C7.95425611 14.75721892 7.95425611 14.75721892 6.14453125 16.51171875 C5.76683594 17.00285156 5.38914062 17.49398438 5 18 C9.49656104 20.24828052 13.07872966 20.16682272 18 20 C18 20.66 18 21.32 18 22 C16.68 22 15.36 22 14 22 C14.33 22.66 14.66 23.32 15 24 C15.99 24.33 16.98 24.66 18 25 C18 25.99 18 26.98 18 28 C16.68 27.67 15.36 27.34 14 27 C13.67 28.32 13.34 29.64 13 31 C12.34 31 11.68 31 11 31 C10.79375 29.906875 10.5875 28.81375 10.375 27.6875 C9.34336062 23.7714341 9.34336062 23.7714341 5.875 22.0625 C4.92625 21.711875 3.9775 21.36125 3 21 C3.1971087 26.354594 3.1971087 26.354594 5.5625 30.875 C6.036875 31.24625 6.51125 31.6175 7 32 C7 32.66 7 33.32 7 34 C5.68 33.34 4.36 32.68 3 32 C2.67 33.65 2.34 35.3 2 37 C0 36 0 36 -1 33 C-2.32 33.66 -3.64 34.32 -5 35 C-5 34.01 -5 33.02 -5 32 C-4.360625 31.62875 -3.72125 31.2575 -3.0625 30.875 C-0.1194766 28.19952418 -0.3477328 25.70519235 -0.078125 21.86328125 C-0.05234375 21.24839844 -0.0265625 20.63351563 0 20 C-0.78375 20.495 -1.5675 20.99 -2.375 21.5 C-5 23 -5 23 -7 23 C-7.33 25.64 -7.66 28.28 -8 31 C-8.99 31 -9.98 31 -11 31 C-11 29.68 -11 28.36 -11 27 C-12.32 27.33 -13.64 27.66 -15 28 C-14.79375 27.4225 -14.5875 26.845 -14.375 26.25 C-13.91044829 23.46268972 -14.66815382 22.41969001 -16 20 C-14.96939453 20.05220703 -14.96939453 20.05220703 -13.91796875 20.10546875 C-12.56638672 20.14607422 -12.56638672 20.14607422 -11.1875 20.1875 C-10.29417969 20.22230469 -9.40085937 20.25710937 -8.48046875 20.29296875 C-5.58352485 19.95081002 -4.77444972 19.24606427 -3 17 C-6.31371 14.79086 -7.3446021 14.77518447 -11.1875 14.875 C-12.53908203 14.90207031 -12.53908203 14.90207031 -13.91796875 14.9296875 C-14.94857422 14.96449219 -14.94857422 14.96449219 -16 15 C-16 14.34 -16 13.68 -16 13 C-15.01 12.34 -14.02 11.68 -13 11 C-13.66 10.01 -14.32 9.02 -15 8 C-13.35 8.33 -11.7 8.66 -10 9 C-10 7.35 -10 5.7 -10 4 C-9.34 4 -8.68 4 -8 4 C-7.67 6.64 -7.34 9.28 -7 12 C-5.02 12.66 -3.04 13.32 -1 14 C-0.66582071 10.6675213 -0.66582071 10.6675213 -1 7 C-2.89584109 4.68622853 -2.89584109 4.68622853 -5 3 C-5 2.34 -5 1.68 -5 1 C-2.525 1.99 -2.525 1.99 0 3 C0 2.01 0 1.02 0 0 Z " fill="#76C4FA" transform="translate(471,0)"/>
<path d="M0 0 C3.10039543 1.75494081 5.48825667 3.48825667 8 6 C8.265625 8.2421875 8.265625 8.2421875 8.25 10.875 C8.25515625 11.73867187 8.2603125 12.60234375 8.265625 13.4921875 C7.98186268 16.1712376 7.47272481 17.75421698 6 20 C1.27537187 22.79620849 -2.46514081 23.581041 -7.91015625 22.6875 C-10.67820393 21.77688992 -12.5199896 20.34507597 -14.18359375 17.9453125 C-15.83748589 14.00445945 -15.8777581 10.14688868 -15 6 C-10.78890039 0.42313836 -6.82286637 -0.57820901 0 0 Z " fill="#010507" transform="translate(184,161)"/>
<path d="M0 0 C3.21607609 1.50083551 5.75184182 3.25295279 8 6 C8.88782185 10.71905306 8.67004412 14.80881046 6.3125 19 C2.39931195 22.38437886 -0.44484469 23.21435676 -5.5625 22.9375 C-9.09095738 22.45607986 -9.83250074 22.16331178 -12.5 19.5625 C-14.97029449 15.34241359 -15.83527245 11.89360705 -15 7 C-11.35407728 0.64684362 -7.07091579 -0.77508115 0 0 Z " fill="#010405" transform="translate(352,290)"/>
<path d="M0 0 C3.20379917 1.42268534 5.21886595 2.96019788 7 6 C7.54937071 9.41830662 7.42663988 12.57333682 7 16 C6.34 16 5.68 16 5 16 C4.731875 16.61875 4.46375 17.2375 4.1875 17.875 C3 20 3 20 0 22 C-3.39107371 22.54602034 -6.60874176 22.54627924 -10 22 C-13.25291709 19.4773296 -15.68783647 17.2297395 -16.2734375 13.046875 C-16.46329741 8.75312011 -16.17697521 6.34784782 -14.1875 2.4375 C-10.31074833 -1.50552092 -5.08057458 -1.05815105 0 0 Z " fill="#010406" transform="translate(95,240)"/>
<path d="M0 0 C0.66 0 1.32 0 2 0 C2 1.32 2 2.64 2 4 C3.65 3.34 5.3 2.68 7 2 C5.84826645 4.46800047 4.95216435 6.04783565 3 8 C2.83322718 11.58343976 2.83322718 11.58343976 3 15 C4.98 14.34 6.96 13.68 9 13 C9.33 10.69 9.66 8.38 10 6 C10.99 5.67 11.98 5.34 13 5 C12.67 6.65 12.34 8.3 12 10 C13.65 9.67 15.3 9.34 17 9 C16.01 9.99 15.02 10.98 14 12 C15.32 12.66 16.64 13.32 18 14 C18 14.66 18 15.32 18 16 C17.40832031 15.90460938 16.81664062 15.80921875 16.20703125 15.7109375 C11.55619775 15.05845515 8.27685626 14.65462721 4 17 C5.3442285 19.26959882 5.3442285 19.26959882 8 21 C11.40060685 21.05863115 14.65559323 20.58718592 18 20 C18 20.99 18 21.98 18 23 C16.68 23 15.36 23 14 23 C14.495 23.45375 14.99 23.9075 15.5 24.375 C17 26 17 26 17 28 C15.68 28 14.36 28 13 28 C13 29.32 13 30.64 13 32 C12.01 32 11.02 32 10 32 C9.67 29.36 9.34 26.72 9 24 C7.02 23.34 5.04 22.68 3 22 C2.72271528 26.02114335 2.72271528 26.02114335 3 30 C4.9004467 31.84315671 4.9004467 31.84315671 7 33 C7 33.99 7 34.98 7 36 C5.68 35.34 4.36 34.68 3 34 C2.67 35.32 2.34 36.64 2 38 C1.34 38 0.68 38 0 38 C-0.495 35.525 -0.495 35.525 -1 33 C-2.32 33.66 -3.64 34.32 -5 35 C-3.84826645 32.53199953 -2.95216435 30.95216435 -1 29 C-0.54188325 27.02764667 -0.54188325 27.02764667 -0.375 24.875 C-0.25125 23.59625 -0.1275 22.3175 0 21 C-3.14041394 22.11659162 -5.43796091 22.95621312 -7.06640625 25.98046875 C-7.79140412 27.95932768 -8.40354415 29.97867741 -9 32 C-9.66 32 -10.32 32 -11 32 C-11 30.35 -11 28.7 -11 27 C-12.65 27.66 -14.3 28.32 -16 29 C-16 26 -16 26 -14 24 C-14.66 23.67 -15.32 23.34 -16 23 C-16 22.34 -16 21.68 -16 21 C-15.39671875 21.03480469 -14.7934375 21.06960938 -14.171875 21.10546875 C-9.07474512 21.3514449 -9.07474512 21.3514449 -4.4375 19.5 C-3.963125 19.005 -3.48875 18.51 -3 18 C-6.21182149 16.09391902 -8.53882603 15.77733753 -12.25 15.875 C-13.58804687 15.90207031 -13.58804687 15.90207031 -14.953125 15.9296875 C-15.62859375 15.95289063 -16.3040625 15.97609375 -17 16 C-17 15.34 -17 14.68 -17 14 C-15.68 13.34 -14.36 12.68 -13 12 C-13.66 11.67 -14.32 11.34 -15 11 C-15 10.34 -15 9.68 -15 9 C-13.68 9 -12.36 9 -11 9 C-11 7.68 -11 6.36 -11 5 C-10.34 5 -9.68 5 -9 5 C-8.7525 6.27875 -8.505 7.5575 -8.25 8.875 C-7.49352257 12.18322176 -7.49352257 12.18322176 -5.0625 14.4375 C-4.381875 14.623125 -3.70125 14.80875 -3 15 C-2.01 15.33 -1.02 15.66 0 16 C-0.21113405 10.29481315 -0.21113405 10.29481315 -3.0625 5.625 C-3.701875 5.08875 -4.34125 4.5525 -5 4 C-5 3.34 -5 2.68 -5 2 C-3.68 2.66 -2.36 3.32 -1 4 C-0.67 2.68 -0.34 1.36 0 0 Z " fill="#77C5FA" transform="translate(38,466)"/>
<path d="M0 0 C2.9375 2.0625 2.9375 2.0625 5 5 C5.06944397 8.95830645 4.5699479 11.14507816 2.375 14.4375 C-1.02982754 16.67751812 -3.006899 16.70054403 -7 16 C-10 13.4375 -10 13.4375 -12 10 C-12.125 6.3125 -12.125 6.3125 -11 3 C-7.56270154 -0.04446435 -4.50608134 -0.75101356 0 0 Z " fill="#0A2331" transform="translate(284,324)"/>
<path d="M0 0 C1.32 0 2.64 0 4 0 C4 5.61 4 11.22 4 17 C-1.625 15.875 -1.625 15.875 -4.3125 11.9375 C-4.82425781 11.20402344 -5.33601563 10.47054688 -5.86328125 9.71484375 C-6.23839844 9.14894531 -6.61351562 8.58304687 -7 8 C-7.33 10.97 -7.66 13.94 -8 17 C-8.99 17 -9.98 17 -11 17 C-11 11.72 -11 6.44 -11 1 C-6 2 -6 2 -3.6875 4.9375 C-2 8 -2 8 -2 10 C-1.34 10 -0.68 10 0 10 C0 6.7 0 3.4 0 0 Z " fill="#040E13" transform="translate(316,323)"/>
<path d="M0 0 C2.8125 1.4375 2.8125 1.4375 5 3 C5 3.66 5 4.32 5 5 C5.66 5 6.32 5 7 5 C7.061875 6.216875 7.12375 7.43375 7.1875 8.6875 C7.71315845 13.18745495 9.58892052 15.02623841 13 18 C13 18.66 13 19.32 13 20 C11.35 19.34 9.7 18.68 8 18 C8 19.65 8 21.3 8 23 C7.01 22.67 6.02 22.34 5 22 C4.67 21.01 4.34 20.02 4 19 C3.01 19.33 2.02 19.66 1 20 C2.15173355 17.53199953 3.04783565 15.95216435 5 14 C5.45811675 12.02764667 5.45811675 12.02764667 5.625 9.875 C5.74875 8.59625 5.8725 7.3175 6 6 C5.071875 6.495 4.14375 6.99 3.1875 7.5 C0 9 0 9 -3 9 C-3.66 8.67 -4.32 8.34 -5 8 C-5 8.66 -5 9.32 -5 10 C-5.66 10 -6.32 10 -7 10 C-7 6.7 -7 3.4 -7 0 C-4.24779828 -1.37610086 -2.93781238 -0.81985462 0 0 Z " fill="#6A9EC5" transform="translate(302,221)"/>
<path d="M0 0 C1.65 0 3.3 0 5 0 C6.0044134 2.2898234 7.00367612 4.5816599 8 6.875 C8.28617188 7.52597656 8.57234375 8.17695313 8.8671875 8.84765625 C11 13.7734375 11 13.7734375 11 16 C9.68 16 8.36 16 7 16 C7 15.01 7 14.02 7 13 C4.03 13 1.06 13 -2 13 C-2 13.99 -2 14.98 -2 16 C-3.32 16 -4.64 16 -6 16 C-5.23757784 12.38944909 -3.87526626 9.14165375 -2.4375 5.75 C-1.98246094 4.67234375 -1.52742187 3.5946875 -1.05859375 2.484375 C-0.70925781 1.66453125 -0.35992187 0.8446875 0 0 Z " fill="#040F15" transform="translate(198,324)"/>
<path d="M0 0 C0.66 0 1.32 0 2 0 C1.54548816 1.73017508 1.08621143 3.45909877 0.625 5.1875 C0.24214844 6.63189453 0.24214844 6.63189453 -0.1484375 8.10546875 C-1 11 -1 11 -3 16 C-10.26 16 -17.52 16 -25 16 C-22.61198171 13.61198171 -20.58617618 12.95638934 -17.4375 11.75 C-10.78652642 9.04479053 -4.07371773 6.1105766 0 0 Z " fill="#03090D" transform="translate(114,285)"/>
<path d="M0 0 C0.66 0 1.32 0 2 0 C2 1.65 2 3.3 2 5 C3.32 4.67 4.64 4.34 6 4 C5.360625 4.639375 4.72125 5.27875 4.0625 5.9375 C1.38087365 9.91930882 1.20501996 13.294792 1 18 C1.66 18 2.32 18 3 18 C3 18.99 3 19.98 3 21 C1.68 21 0.36 21 -1 21 C-1 20.34 -1 19.68 -1 19 C-6.77499615 16.52500165 -10.78142918 15.69843867 -17 17 C-17 16.34 -17 15.68 -17 15 C-15.68 14.67 -14.36 14.34 -13 14 C-13 13.34 -13 12.68 -13 12 C-13.99 11.67 -14.98 11.34 -16 11 C-15.34 10.34 -14.68 9.68 -14 9 C-13.34 9.33 -12.68 9.66 -12 10 C-11.67 8.68 -11.34 7.36 -11 6 C-10.34 6 -9.68 6 -9 6 C-8.814375 7.0725 -8.62875 8.145 -8.4375 9.25 C-7.76923865 11.69039144 -7.3033734 12.7568809 -5.30859375 14.35546875 C-3.58340249 15.32087881 -1.79400985 16.16943988 0 17 C-0.21113405 11.29481315 -0.21113405 11.29481315 -3.0625 6.625 C-3.701875 6.08875 -4.34125 5.5525 -5 5 C-5 4.34 -5 3.68 -5 3 C-3.68 3.66 -2.36 4.32 -1 5 C-0.67 3.35 -0.34 1.7 0 0 Z " fill="#78B7E4" transform="translate(308,205)"/>
<path d="M0 0 C0.66 0.33 1.32 0.66 2 1 C1.67 1.99 1.34 2.98 1 4 C-0.134375 3.979375 -1.26875 3.95875 -2.4375 3.9375 C-5.81575674 3.58422523 -5.81575674 3.58422523 -7 5 C-7.2500773 7.45809998 -7.2500773 7.45809998 -7 10 C-6.34 10.66 -5.68 11.32 -5 12 C-1.40320934 11.67673447 -1.40320934 11.67673447 2 11 C2.33 11.99 2.66 12.98 3 14 C-0.7205836 16.48038907 -2.59796571 16.46337203 -7 16 C-9.4375 14.5 -9.4375 14.5 -11 12 C-11.48117071 8.52182314 -11.60290203 5.20580406 -10 2 C-6.69124834 -0.20583444 -3.90908572 -0.25494037 0 0 Z " fill="#06131B" transform="translate(236,324)"/>
<path d="M0 0 C0.33 1.32 0.66 2.64 1 4 C-0.134375 3.979375 -1.26875 3.95875 -2.4375 3.9375 C-5.81575674 3.58422523 -5.81575674 3.58422523 -7 5 C-6.71269945 7.33944736 -6.38063221 9.6739143 -6 12 C-2.535 11.505 -2.535 11.505 1 11 C1 12.32 1 13.64 1 15 C0 16 0 16 -3.3125 16.3125 C-7 16 -7 16 -9.4375 14.5 C-11.76266487 10.77973621 -11.41503129 8.35782859 -11 4 C-7.95841042 -0.56238437 -5.1474794 -0.11438843 0 0 Z " fill="#030C11" transform="translate(265,324)"/>
<path d="M0 0 C0.33 0.99 0.66 1.98 1 3 C1.66 3 2.32 3 3 3 C3 5.64 3 8.28 3 11 C2.67 11 2.34 11 2 11 C2 8.69 2 6.38 2 4 C-1.14041394 5.11659162 -3.43796091 5.95621312 -5.06640625 8.98046875 C-5.79140412 10.95932768 -6.40354415 12.97867741 -7 15 C-7.66 15 -8.32 15 -9 15 C-9 13.35 -9 11.7 -9 10 C-10.32 10.33 -11.64 10.66 -13 11 C-12.67 10.01 -12.34 9.02 -12 8 C-11.34 7.67 -10.68 7.34 -10 7 C-11.32 6.34 -12.64 5.68 -14 5 C-14 4.34 -14 3.68 -14 3 C-13.39671875 3.09539062 -12.7934375 3.19078125 -12.171875 3.2890625 C-11.37265625 3.39992188 -10.5734375 3.51078125 -9.75 3.625 C-8.96109375 3.74101562 -8.1721875 3.85703125 -7.359375 3.9765625 C-4.6393221 4.00358289 -3.26514161 3.47334432 -1 2 C-0.67 1.34 -0.34 0.68 0 0 Z " fill="#70A9D2" transform="translate(189,255)"/>
<path d="M0 0 C0.66 0.33 1.32 0.66 2 1 C6.42239631 2.4741321 10.44855514 1.65399402 15 1 C15 1.66 15 2.32 15 3 C13.02 3.99 13.02 3.99 11 5 C11.99 5.66 12.98 6.32 14 7 C14 7.66 14 8.32 14 9 C12.35 8.67 10.7 8.34 9 8 C9 9.65 9 11.3 9 13 C8.34 12.67 7.68 12.34 7 12 C6.7525 10.88625 6.505 9.7725 6.25 8.625 C5.34338168 4.75741634 5.34338168 4.75741634 1.875 3.0625 C0.92625 2.711875 -0.0225 2.36125 -1 2 C-1 4.64 -1 7.28 -1 10 C-1.33 10 -1.66 10 -2 10 C-2 7.03 -2 4.06 -2 1 C-1.34 0.67 -0.68 0.34 0 0 Z " fill="#6798BD" transform="translate(195,257)"/>
<path d="M0 0 C2.5 0.25 2.5 0.25 4.5 2.25 C4.75 5.25 4.75 5.25 4.5 8.25 C3.84 8.91 3.18 9.57 2.5 10.25 C-0.79714793 9.92028521 -2.1226839 9.6273161 -4.5 7.25 C-4.75 4.75 -4.75 4.75 -4.5 2.25 C-2.5 0.25 -2.5 0.25 0 0 Z " fill="#31A0E0" transform="translate(280.5,326.75)"/>
<path d="M0 0 C0.66 0 1.32 0 2 0 C2.33 0.99 2.66 1.98 3 3 C4.32 2.34 5.64 1.68 7 1 C5.48601545 4.78496138 4.9855604 5.0072198 1 7 C1 9.97 1 12.94 1 16 C1.66 16 2.32 16 3 16 C3 16.99 3 17.98 3 19 C2.34 19 1.68 19 1 19 C1 21.97 1 24.94 1 28 C0.67 28 0.34 28 0 28 C0 25.03 0 22.06 0 19 C-0.66 19 -1.32 19 -2 19 C-2 18.01 -2 17.02 -2 16 C-1.34 16 -0.68 16 0 16 C-0.14160134 9.79835828 -0.14160134 9.79835828 -3.0625 4.5625 C-3.701875 4.046875 -4.34125 3.53125 -5 3 C-5 2.34 -5 1.68 -5 1 C-3.02 1.99 -3.02 1.99 -1 3 C-0.67 2.01 -0.34 1.02 0 0 Z " fill="#81C7F9" transform="translate(39,0)"/>
<path d="M0 0 C0.99 0.66 1.98 1.32 3 2 C2 5 2 5 0.375 6.25 C-2.95194155 7.30061312 -5.62008449 6.64998375 -9 6 C-9 4.02 -9 2.04 -9 0 C-5.46627283 -1.17790906 -3.59454905 -0.82375082 0 0 Z " fill="#080B0E" transform="translate(251,168)"/>
<path d="M0 0 C0.33 0 0.66 0 1 0 C1.66 2.31 2.32 4.62 3 7 C5.39719432 7.67958603 5.39719432 7.67958603 8 8 C9.95216435 6.04783565 10.84826645 4.46800047 12 2 C13 3 13 3 13.3125 5.3125 C13 8 13 8 11.4375 10.3125 C8.10654682 12.61854451 5.9675271 12.504958 2 12 C0.0625 11 0.0625 11 -1 9 C-1.29335324 6.24358656 -1.18027693 3.79429237 -1 1 C-0.67 0.67 -0.34 0.34 0 0 Z " fill="#030D12" transform="translate(275,328)"/>
<path d="M0 0 C0.48979592 7.34693878 0.48979592 7.34693878 -1.875 10.5 C-4 12 -4 12 -6 12 C-6 11.34 -6 10.68 -6 10 C-6.66 10 -7.32 10 -8 10 C-7.51159618 3.52864939 -7.51159618 3.52864939 -5.125 1.0625 C-3 0 -3 0 0 0 Z " fill="#0A1014" transform="translate(191,259)"/>
<path d="M0 0 C2.0625 0.6875 2.0625 0.6875 4 2 C4.75 4.125 4.75 4.125 5 6 C4.01 6.495 4.01 6.495 3 7 C3.99 7.66 4.98 8.32 6 9 C3.36 9 0.72 9 -2 9 C-2 9.99 -2 10.98 -2 12 C-3.32 12 -4.64 12 -6 12 C-5.21910455 8.09552275 -3.69382187 4.59090237 -2 1 C-1.34 0.67 -0.68 0.34 0 0 Z " fill="#081D29" transform="translate(198,328)"/>
<path d="M0 0 C1.65 0 3.3 0 5 0 C4.67 4.29 4.34 8.58 4 13 C4.66 13 5.32 13 6 13 C6 13.99 6 14.98 6 16 C4.02 16 2.04 16 0 16 C0 10.72 0 5.44 0 0 Z " fill="#02070A" transform="translate(294,324)"/>
<path d="M0 0 C1.65 0 3.3 0 5 0 C4.67 4.29 4.34 8.58 4 13 C4.66 13 5.32 13 6 13 C6 13.99 6 14.98 6 16 C4.02 16 2.04 16 0 16 C0 10.72 0 5.44 0 0 Z " fill="#02080B" transform="translate(214,324)"/>
<path d="M0 0 C1.7074998 1.28062485 3.37373596 2.61767557 5 4 C5 4.66 5 5.32 5 6 C3.68 5.67 2.36 5.34 1 5 C0.67 5.99 0.34 6.98 0 8 C-0.99 8 -1.98 8 -3 8 C-3.33 6.68 -3.66 5.36 -4 4 C-6.30143236 7.45214853 -6.13833854 8.23479324 -5.625 12.1875 C-5.51414063 13.08855469 -5.40328125 13.98960937 -5.2890625 14.91796875 C-5.19367188 15.60503906 -5.09828125 16.29210937 -5 17 C-6.73694677 14.39457984 -7.69100448 12.41657225 -8.6875 9.5 C-8.95949219 8.7265625 -9.23148438 7.953125 -9.51171875 7.15625 C-10 5 -10 5 -9 2 C-9 2.66 -9 3.32 -9 4 C-8.236875 3.484375 -7.47375 2.96875 -6.6875 2.4375 C-5.800625 1.963125 -4.91375 1.48875 -4 1 C-3.01 1.33 -2.02 1.66 -1 2 C-0.67 1.34 -0.34 0.68 0 0 Z " fill="#467595" transform="translate(194,267)"/>
<path d="M0 0 C2.3125 2.0625 2.3125 2.0625 4 4 C0.91440696 6.26881841 -0.42209376 7.05451946 -4.3125 6.6875 C-5.199375 6.460625 -6.08625 6.23375 -7 6 C-7 4.02 -7 2.04 -7 0 C-4.23382717 -1.38308641 -2.92591209 -0.90563946 0 0 Z " fill="#0A1014" transform="translate(302,221)"/>
<path d="M0 0 C0.99 0.33 1.98 0.66 3 1 C3 1.99 3 2.98 3 4 C3.66 4 4.32 4 5 4 C5 3.34 5 2.68 5 2 C5.99 2 6.98 2 8 2 C6.94435669 4.55113801 6.3402788 5.79377042 3.9375 7.25 C0.86716918 10.02320203 1.26473901 12.96273011 1 17 C0.67 17 0.34 17 0 17 C-0.02578125 16.39671875 -0.0515625 15.7934375 -0.078125 15.171875 C-0.37388587 9.93018499 -0.37388587 9.93018499 -3.0625 5.5625 C-3.701875 5.046875 -4.34125 4.53125 -5 4 C-5 3.34 -5 2.68 -5 2 C-3.02 2.99 -3.02 2.99 -1 4 C-0.67 2.68 -0.34 1.36 0 0 Z " fill="#6EA3CA" transform="translate(256,152)"/>
<path d="M0 0 C0.66 0 1.32 0 2 0 C2.25394531 0.55429688 2.50789062 1.10859375 2.76953125 1.6796875 C3.11371094 2.40414062 3.45789063 3.12859375 3.8125 3.875 C4.31716797 4.95394531 4.31716797 4.95394531 4.83203125 6.0546875 C5.99467097 8.30542806 5.99467097 8.30542806 9 10 C9 10.66 9 11.32 9 12 C7.989375 11.649375 6.97875 11.29875 5.9375 10.9375 C2.07662622 9.8107552 -1.05394586 10.19468283 -5 11 C-4.67 10.01 -4.34 9.02 -4 8 C-3.01 7.67 -2.02 7.34 -1 7 C-1.99 6.34 -2.98 5.68 -4 5 C-4 4.34 -4 3.68 -4 3 C-1.525 3.99 -1.525 3.99 1 5 C0.67 3.35 0.34 1.7 0 0 Z " fill="#70A6CE" transform="translate(180,243)"/>
<path d="M0 0 C2.5625 0.1875 2.5625 0.1875 4.5625 2.1875 C4.00694444 6.74305556 4.00694444 6.74305556 2.5625 8.1875 C0.125 8.375 0.125 8.375 -2.4375 8.1875 C-3.0975 7.5275 -3.7575 6.8675 -4.4375 6.1875 C-3.71780303 0.28598485 -3.71780303 0.28598485 0 0 Z " fill="#366885" transform="translate(228.4375,378.8125)"/>
<path d="M0 0 C0.66 0 1.32 0 2 0 C1.67 1.65 1.34 3.3 1 5 C2.65 4.67 4.3 4.34 6 4 C6 4.66 6 5.32 6 6 C5.01 6.495 5.01 6.495 4 7 C5.32 7.66 6.64 8.32 8 9 C8 9.66 8 10.32 8 11 C7.32453125 10.90460938 6.6490625 10.80921875 5.953125 10.7109375 C5.06109375 10.60007813 4.1690625 10.48921875 3.25 10.375 C2.36828125 10.25898438 1.4865625 10.14296875 0.578125 10.0234375 C-2.22859878 9.99792183 -3.63384866 10.55156156 -6 12 C-6 11.01 -6 10.02 -6 9 C-5.38125 8.566875 -4.7625 8.13375 -4.125 7.6875 C-1.34334461 5.47853837 -0.89842405 3.3690902 0 0 Z " fill="#6EA3CA" transform="translate(267,158)"/>
<path d="M0 0 C0.33 0 0.66 0 1 0 C1 2.64 1 5.28 1 8 C1.928125 8.433125 1.928125 8.433125 2.875 8.875 C5 10 5 10 7 12 C6.67 12.99 6.34 13.98 6 15 C4.68 14.01 3.36 13.02 2 12 C2 13.65 2 15.3 2 17 C1.34 17 0.68 17 0 17 C-0.33 15.68 -0.66 14.36 -1 13 C-2.98 13.99 -2.98 13.99 -5 15 C-3.84826645 12.53199953 -2.95216435 10.95216435 -1 9 C-0.53993654 6.79749008 -0.53993654 6.79749008 -0.375 4.375 C-0.26285156 3.14910156 -0.26285156 3.14910156 -0.1484375 1.8984375 C-0.09945312 1.27195313 -0.05046875 0.64546875 0 0 Z " fill="#6FA5CC" transform="translate(256,173)"/>
<path d="M0 0 C0.33 1.32 0.66 2.64 1 4 C-0.1446875 4.5259375 -0.1446875 4.5259375 -1.3125 5.0625 C-4.90858118 7.65502364 -5.52103787 9.87447406 -7 14 C-7.66 12.68 -8.32 11.36 -9 10 C-10.32 10.33 -11.64 10.66 -13 11 C-13 10.34 -13 9.68 -13 9 C-12.34 8.67 -11.68 8.34 -11 8 C-10.67 7.01 -10.34 6.02 -10 5 C-7.96875 4.12109375 -7.96875 4.12109375 -5.5 3.4375 C-3.08504595 2.79615283 -3.08504595 2.79615283 -1 2 C-0.67 1.34 -0.34 0.68 0 0 Z " fill="#72A9D2" transform="translate(254,170)"/>
<path d="M0 0 C0.99 0 1.98 0 3 0 C2.67 1.65 2.34 3.3 2 5 C3.65 4.67 5.3 4.34 7 4 C6.01 4.99 5.02 5.98 4 7 C5.32 7.66 6.64 8.32 8 9 C8 9.66 8 10.32 8 11 C4.37 10.67 0.74 10.34 -3 10 C-2.01 6.7 -1.02 3.4 0 0 Z " fill="#6CA0C6" transform="translate(318,211)"/>
<path d="M0 0 C2.625 0.375 2.625 0.375 5 1 C5.625 3.375 5.625 3.375 6 6 C5.34 6.66 4.68 7.32 4 8 C1.375 7.625 1.375 7.625 -1 7 C-1.625 4.625 -1.625 4.625 -2 2 C-1.34 1.34 -0.68 0.68 0 0 Z " fill="#377EA8" transform="translate(256,379)"/>
<path d="M0 0 C1.66611905 -0.042721 3.33382885 -0.04063832 5 0 C6 1 6 1 6.125 4.5 C6 8 6 8 5 9 C3.33382885 9.04063832 1.66611905 9.042721 0 9 C0 6.03 0 3.06 0 0 Z " fill="#366D8C" transform="translate(246,357)"/>
<path d="M0 0 C0.66 0 1.32 0 2 0 C2.25523437 0.81404297 2.25523437 0.81404297 2.515625 1.64453125 C4.42025405 7.30533471 4.42025405 7.30533471 9 11 C8.01 11.33 7.02 11.66 6 12 C5.01 11.34 4.02 10.68 3 10 C0.70285813 9.97360171 0.70285813 9.97360171 -1.6875 10.375 C-2.49574219 10.48585937 -3.30398437 10.59671875 -4.13671875 10.7109375 C-5.05904297 10.85402344 -5.05904297 10.85402344 -6 11 C-6 10.34 -6 9.68 -6 9 C-4.68 8.34 -3.36 7.68 -2 7 C-2 6.34 -2 5.68 -2 5 C-1.34 5 -0.68 5 0 5 C0 3.35 0 1.7 0 0 Z " fill="#79B6E3" transform="translate(246,158)"/>
<path d="M0 0 C0.66 0 1.32 0 2 0 C2 5.28 2 10.56 2 16 C0.68 15.67 -0.64 15.34 -2 15 C-2.33 13.35 -2.66 11.7 -3 10 C-2.01 10 -1.02 10 0 10 C0 6.7 0 3.4 0 0 Z " fill="#010405" transform="translate(317,324)"/>
<path d="M0 0 C0.33 0 0.66 0 1 0 C1 7.26 1 14.52 1 22 C1.99 22 2.98 22 4 22 C4 20.68 4 19.36 4 18 C4.66 18.33 5.32 18.66 6 19 C5.67 20.65 5.34 22.3 5 24 C4.34 24 3.68 24 3 24 C3.33 24.99 3.66 25.98 4 27 C3.01 27 2.02 27 1 27 C1 26.01 1 25.02 1 24 C0.34 24 -0.32 24 -1 24 C-0.67 16.08 -0.34 8.16 0 0 Z " fill="#326F94" transform="translate(241,139)"/>
<path d="M0 0 C0.66 0.33 1.32 0.66 2 1 C-3.94 6.94 -9.88 12.88 -16 19 C-16 14.80130728 -14.19810866 13.66463027 -11.375 10.625 C-10.9207666 10.13475342 -10.4665332 9.64450684 -9.99853516 9.1394043 C-6.85830473 5.79321137 -3.64356736 2.78061719 0 0 Z " fill="#0B2534" transform="translate(328,154)"/>
<path d="M0 0 C1.32 0 2.64 0 4 0 C4 5.61 4 11.22 4 17 C3.67 17 3.34 17 3 17 C3 11.72 3 6.44 3 1 C2.34 1 1.68 1 1 1 C1 4.3 1 7.6 1 11 C0.01 11 -0.98 11 -2 11 C-2.33 11.66 -2.66 12.32 -3 13 C-3.66 12.34 -4.32 11.68 -5 11 C-5 10.01 -5 9.02 -5 8 C-4.01 8 -3.02 8 -2 8 C-2 8.66 -2 9.32 -2 10 C-1.34 10 -0.68 10 0 10 C0 6.7 0 3.4 0 0 Z " fill="#123E57" transform="translate(316,323)"/>
<path d="M0 0 C0 0.99 0 1.98 0 3 C-0.99 3.66 -1.98 4.32 -3 5 C-2.34 5.33 -1.68 5.66 -1 6 C-1 6.66 -1 7.32 -1 8 C-2.32 8 -3.64 8 -5 8 C-5 9.32 -5 10.64 -5 12 C-5.99 12 -6.98 12 -8 12 C-7.649375 11.21625 -7.29875 10.4325 -6.9375 9.625 C-6.628125 8.75875 -6.31875 7.8925 -6 7 C-6.33 6.34 -6.66 5.68 -7 5 C-6.75 2.9375 -6.75 2.9375 -6 1 C-3 0 -3 0 0 0 Z " fill="#6AC1FB" transform="translate(186,359)"/>
<path d="M0 0 C0.33 0 0.66 0 1 0 C1 3.3 1 6.6 1 10 C1.99 10.33 2.98 10.66 4 11 C3.67 11.99 3.34 12.98 3 14 C2.34 14 1.68 14 1 14 C1 16.64 1 19.28 1 22 C0.67 22 0.34 22 0 22 C0 19.36 0 16.72 0 14 C-0.66 14 -1.32 14 -2 14 C-2 13.01 -2 12.02 -2 11 C-2.66 10.67 -3.32 10.34 -4 10 C-2.68 10 -1.36 10 0 10 C0 6.7 0 3.4 0 0 Z " fill="#84C3F2" transform="translate(257,159)"/>
<path d="M0 0 C0.66 0 1.32 0 2 0 C2 1.65 2 3.3 2 5 C3.65 4.67 5.3 4.34 7 4 C6.01 5.32 5.02 6.64 4 8 C5.32 8.33 6.64 8.66 8 9 C8 9.66 8 10.32 8 11 C3.545 10.01 3.545 10.01 -1 9 C-0.67 6.03 -0.34 3.06 0 0 Z " fill="#7AC5F9" transform="translate(358,344)"/>
<path d="M0 0 C1.65 0 3.3 0 5 0 C8 5.75 8 5.75 8 8 C7.34 8 6.68 8 6 8 C6 7.01 6 6.02 6 5 C5.01 5.33 4.02 5.66 3 6 C0.8125 5.5625 0.8125 5.5625 -1 5 C-0.67 3.35 -0.34 1.7 0 0 Z " fill="#081C27" transform="translate(198,324)"/>
<path d="M0 0 C1.65 0 3.3 0 5 0 C5.33 1.32 5.66 2.64 6 4 C4.68 4.33 3.36 4.66 2 5 C2 5.99 2 6.98 2 8 C1.34 8 0.68 8 0 8 C0 5.36 0 2.72 0 0 Z " fill="#367092" transform="translate(283,379)"/>
<path d="M0 0 C0.99 0 1.98 0 3 0 C3.33 0.99 3.66 1.98 4 3 C3.34 3 2.68 3 2 3 C2.08378906 3.73605469 2.16757813 4.47210938 2.25390625 5.23046875 C2.35574219 6.20628906 2.45757812 7.18210937 2.5625 8.1875 C2.71912109 9.63189453 2.71912109 9.63189453 2.87890625 11.10546875 C2.99758751 13.94233377 2.67765639 16.25423671 2 19 C1.67 19 1.34 19 1 19 C1 17.35 1 15.7 1 14 C0.34 14 -0.32 14 -1 14 C-0.34 10.37 0.32 6.74 1 3 C0.34 2.67 -0.32 2.34 -1 2 C-0.67 1.34 -0.34 0.68 0 0 Z " fill="#7FBCE9" transform="translate(191,255)"/>
<path d="M0 0 C1.65 0 3.3 0 5 0 C4.01 0.33 3.02 0.66 2 1 C2 1.66 2 2.32 2 3 C3.32 2.67 4.64 2.34 6 2 C6.33 3.98 6.66 5.96 7 8 C6.01 7.67 5.02 7.34 4 7 C4 6.34 4 5.68 4 5 C3.34 5 2.68 5 2 5 C2 5.99 2 6.98 2 8 C1.34 8 0.68 8 0 8 C0 5.36 0 2.72 0 0 Z " fill="#366580" transform="translate(269,379)"/>
<path d="M0 0 C3.875 1.75 3.875 1.75 5 4 C5.66 2.68 6.32 1.36 7 0 C7 2.64 7 5.28 7 8 C5.68 7.01 4.36 6.02 3 5 C2.67 5.99 2.34 6.98 2 8 C1.34 8 0.68 8 0 8 C0 5.36 0 2.72 0 0 Z " fill="#36596D" transform="translate(210,379)"/>
<path d="M0 0 C0.66 0 1.32 0 2 0 C0.52278578 3.45201639 -1.43794001 5.64961936 -4.125 8.25 C-4.84945313 8.95640625 -5.57390625 9.6628125 -6.3203125 10.390625 C-6.87460937 10.92171875 -7.42890625 11.4528125 -8 12 C-8.66 11.67 -9.32 11.34 -10 11 C-8.52116808 9.35386588 -7.04192523 7.70810092 -5.5625 6.0625 C-4.73878906 5.14597656 -3.91507812 4.22945312 -3.06640625 3.28515625 C-1 1 -1 1 0 0 Z " fill="#2E98D5" transform="translate(353,182)"/>
<path d="M0 0 C3.61941735 1.50239966 6.7321794 2.82145293 10 5 C4.58461538 6.23076923 4.58461538 6.23076923 1.625 5.0625 C1.08875 4.711875 0.5525 4.36125 0 4 C0 6.31 0 8.62 0 11 C-0.33 11 -0.66 11 -1 11 C-1.0270043 9.54176788 -1.04639787 8.08339325 -1.0625 6.625 C-1.07410156 5.81289063 -1.08570313 5.00078125 -1.09765625 4.1640625 C-1 2 -1 2 0 0 Z " fill="#66C0FB" transform="translate(474,17)"/>
<path d="M0 0 C0.66 0.33 1.32 0.66 2 1 C-1.96 4.96 -5.92 8.92 -10 13 C-10 9.28115772 -9.1259934 8.63852271 -6.6875 5.9375 C-5.76517578 4.89916016 -5.76517578 4.89916016 -4.82421875 3.83984375 C-3 2 -3 2 0 0 Z " fill="#2A8BC4" transform="translate(166,147)"/>
<path d="M0 0 C0.66 0 1.32 0 2 0 C2.33 1.98 2.66 3.96 3 6 C2.01 6.33 1.02 6.66 0 7 C-0.33 7.66 -0.66 8.32 -1 9 C-2.37562854 7.71034824 -3.70766393 6.37310707 -5 5 C-5 4.34 -5 3.68 -5 3 C-3.02 3.99 -3.02 3.99 -1 5 C-0.67 3.35 -0.34 1.7 0 0 Z " fill="#6DA2C8" transform="translate(308,205)"/>
<path d="M0 0 C0 0.66 0 1.32 0 2 C-1.32 2 -2.64 2 -4 2 C-4 3.32 -4 4.64 -4 6 C-2.68 6.33 -1.36 6.66 0 7 C-1 8 -1 8 -3.5 8.125 C-6 8 -6 8 -7 7 C-7.04080783 5.00041636 -7.04254356 2.99954746 -7 1 C-4.53721199 -0.231394 -2.7204945 -0.07159196 0 0 Z " fill="#366D8D" transform="translate(247,379)"/>
<path d="M0 0 C0.66 0.33 1.32 0.66 2 1 C1.01 2.485 1.01 2.485 0 4 C-2.97 3.505 -2.97 3.505 -6 3 C-6.33 3.66 -6.66 4.32 -7 5 C-8.32 4.34 -9.64 3.68 -11 3 C-11 2.34 -11 1.68 -11 1 C-10.28972656 1.01160156 -9.57945312 1.02320313 -8.84765625 1.03515625 C-7.92855469 1.04417969 -7.00945312 1.05320312 -6.0625 1.0625 C-4.68771484 1.07990234 -4.68771484 1.07990234 -3.28515625 1.09765625 C-1.03406673 1.25949049 -1.03406673 1.25949049 0 0 Z " fill="#6CC2FB" transform="translate(342,359)"/>
<path d="M0 0 C0.99 0.33 1.98 0.66 3 1 C2.67 3.31 2.34 5.62 2 8 C1.34 8 0.68 8 0 8 C0.33 6.35 0.66 4.7 1 3 C-0.65 3.66 -2.3 4.32 -4 5 C-3.67 4.01 -3.34 3.02 -3 2 C-2.01 2 -1.02 2 0 2 C0 1.34 0 0.68 0 0 Z " fill="#7BBBE9" transform="translate(297,229)"/>
<path d="M0 0 C2.62187494 1.04874998 3.79371361 1.64931313 5.25 4.125 C5.4975 4.74375 5.745 5.3625 6 6 C4.68 5.34 3.36 4.68 2 4 C1.67 5.65 1.34 7.3 1 9 C0.67 9 0.34 9 0 9 C0 7.02 0 5.04 0 3 C-0.66 2.67 -1.32 2.34 -2 2 C-1.34 1.34 -0.68 0.68 0 0 Z " fill="#7FC6F9" transform="translate(472,496)"/>
<path d="M0 0 C1.98 0.99 1.98 0.99 4 2 C4.33 1.34 4.66 0.68 5 0 C5.66 0 6.32 0 7 0 C6.34 2.97 5.68 5.94 5 9 C4.34 9 3.68 9 3 9 C2 6 1 3 0 0 Z " fill="#367092" transform="translate(259,357)"/>
<path d="M0 0 C0.66 0 1.32 0 2 0 C2.33 1.32 2.66 2.64 3 4 C4.32 3.67 5.64 3.34 7 3 C6 6 6 6 3.9375 7.1875 C3.298125 7.455625 2.65875 7.72375 2 8 C2 7.34 2 6.68 2 6 C1.01 5.67 0.02 5.34 -1 5 C-0.67 3.35 -0.34 1.7 0 0 Z " fill="#6B9EC4" transform="translate(202,243)"/>
<path d="M0 0 C0.99 0.33 1.98 0.66 3 1 C2.67 2.65 2.34 4.3 2 6 C0.68 5.67 -0.64 5.34 -2 5 C-2 3.68 -2 2.36 -2 1 C-1.34 0.67 -0.68 0.34 0 0 Z " fill="#37A8E9" transform="translate(228,380)"/>
<path d="M0 0 C0 2.31 0 4.62 0 7 C-1.65 7.33 -3.3 7.66 -5 8 C-4.67 6.68 -4.34 5.36 -4 4 C-3.01 4 -2.02 4 -1 4 C-1.99 3.67 -2.98 3.34 -4 3 C-4 2.34 -4 1.68 -4 1 C-1 0 -1 0 0 0 Z " fill="#3781AC" transform="translate(252,358)"/>
<path d="M0 0 C1.32 0 2.64 0 4 0 C4 0.99 4 1.98 4 3 C4.66 3 5.32 3 6 3 C5.67 4.98 5.34 6.96 5 9 C4.67 7.68 4.34 6.36 4 5 C2.68 5.33 1.36 5.66 0 6 C0 5.01 0 4.02 0 3 C0.66 2.67 1.32 2.34 2 2 C1.34 1.34 0.68 0.68 0 0 Z " fill="#60BFFB" transform="translate(152,362)"/>
<path d="M0 0 C2.0625 0.6875 2.0625 0.6875 4 2 C4.75 4.125 4.75 4.125 5 6 C3.35 6 1.7 6 0 6 C-0.66 4.35 -1.32 2.7 -2 1 C-1.34 0.67 -0.68 0.34 0 0 Z " fill="#174D6C" transform="translate(198,328)"/>
<path d="M0 0 C0 0.33 0 0.66 0 1 C-2.31 1.66 -4.62 2.32 -7 3 C-7 3.99 -7 4.98 -7 6 C-8.32 5.34 -9.64 4.68 -11 4 C-11 3.34 -11 2.68 -11 2 C-7.09100481 -1.10420207 -4.76837457 -1.21981675 0 0 Z " fill="#1A2730" transform="translate(323,221)"/>
<path d="M0 0 C0.33 0 0.66 0 1 0 C1.33 2.97 1.66 5.94 2 9 C1.01 9 0.02 9 -1 9 C-1 8.01 -1 7.02 -1 6 C-2.32 6 -3.64 6 -5 6 C-5 5.34 -5 4.68 -5 4 C-2.525 4.495 -2.525 4.495 0 5 C0 3.35 0 1.7 0 0 Z " fill="#7DC6F9" transform="translate(461,472)"/>
<path d="M0 0 C0.66 0 1.32 0 2 0 C1.54548816 1.73017508 1.08621143 3.45909877 0.625 5.1875 C0.36976562 6.15042969 0.11453125 7.11335938 -0.1484375 8.10546875 C-0.94766296 10.82210207 -1.9031362 13.39137175 -3 16 C-4.07230715 12.78307855 -3.93694604 11.75977701 -3.1875 8.5625 C-3.01605469 7.80066406 -2.84460938 7.03882813 -2.66796875 6.25390625 C-2.00007466 4.00025191 -1.1145722 2.06454514 0 0 Z " fill="#174D6D" transform="translate(114,285)"/>
<path d="M0 0 C1.98 0.66 3.96 1.32 6 2 C5.01 2.495 5.01 2.495 4 3 C4 4.32 4 5.64 4 7 C3.01 6.67 2.02 6.34 1 6 C0.67 4.02 0.34 2.04 0 0 Z " fill="#507793" transform="translate(317,231)"/>
<path d="M0 0 C2 3 2 3 2.875 5.5 C4.14747405 8.32772011 5.41466547 9.36262146 8 11 C7.01 11.33 6.02 11.66 5 12 C2.3125 10.5625 2.3125 10.5625 0 8 C-0.43770084 5.19764706 -0.23839891 2.86078698 0 0 Z " fill="#6799BD" transform="translate(247,158)"/>
<path d="M0 0 C1.32 0.33 2.64 0.66 4 1 C4 2.32 4 3.64 4 5 C4.66 5.33 5.32 5.66 6 6 C4.02 6.66 2.04 7.32 0 8 C0.66 6.68 1.32 5.36 2 4 C1.34 3.67 0.68 3.34 0 3 C0 2.01 0 1.02 0 0 Z " fill="#6AC1FB" transform="translate(23,20)"/>
<path d="M0 0 C0.33 0.66 0.66 1.32 1 2 C-0.32 2 -1.64 2 -3 2 C-3 2.99 -3 3.98 -3 5 C-3.66 5 -4.32 5 -5 5 C-5.33 5.66 -5.66 6.32 -6 7 C-6.66 5.35 -7.32 3.7 -8 2 C-5.36 1.34 -2.72 0.68 0 0 Z " fill="#7FC6F9" transform="translate(488,20)"/>
<path d="M0 0 C0.33 0.99 0.66 1.98 1 3 C1.66 3 2.32 3 3 3 C3 5.64 3 8.28 3 11 C2.67 11 2.34 11 2 11 C2 8.69 2 6.38 2 4 C0.35 4.66 -1.3 5.32 -3 6 C-3.66 5.34 -4.32 4.68 -5 4 C-4.360625 3.71125 -3.72125 3.4225 -3.0625 3.125 C-0.84793921 2.17176549 -0.84793921 2.17176549 0 0 Z " fill="#618FB2" transform="translate(189,255)"/>
<path d="M0 0 C0.99 0 1.98 0 3 0 C3 1.32 3 2.64 3 4 C3.66 4 4.32 4 5 4 C5 3.34 5 2.68 5 2 C5.99 2 6.98 2 8 2 C6.25 5.875 6.25 5.875 4 7 C3.34 6.67 2.68 6.34 2 6 C2 4.35 2 2.7 2 1 C1.34 0.67 0.68 0.34 0 0 Z " fill="#4F7692" transform="translate(191,237)"/>
<path d="M0 0 C1.9375 0.8125 1.9375 0.8125 4 2 C4.33 2.99 4.66 3.98 5 5 C2.525 4.01 2.525 4.01 0 3 C0 4.65 0 6.3 0 8 C-0.66 7.67 -1.32 7.34 -2 7 C-1.34 4.69 -0.68 2.38 0 0 Z " fill="#5F8DAF" transform="translate(310,236)"/>
<path d="M0 0 C0.99 0.33 1.98 0.66 3 1 C3 1.66 3 2.32 3 3 C3.99 3.33 4.98 3.66 6 4 C3.29120665 5.35439668 0.99066732 5.06501451 -2 5 C-1.34 3.35 -0.68 1.7 0 0 Z " fill="#68C1FB" transform="translate(25,10)"/>
<path d="M0 0 C2.475 0.99 2.475 0.99 5 2 C5 2.99 5 3.98 5 5 C3.68 4.34 2.36 3.68 1 3 C0.67 4.32 0.34 5.64 0 7 C-0.66 6.67 -1.32 6.34 -2 6 C-1.34 4.02 -0.68 2.04 0 0 Z " fill="#6FC2FA" transform="translate(40,497)"/>
<path d="M0 0 C0.33 0 0.66 0 1 0 C0.67 2.64 0.34 5.28 0 8 C-1.65 6.35 -3.3 4.7 -5 3 C-4.01 2.67 -3.02 2.34 -2 2 C-1.67 2.33 -1.34 2.66 -1 3 C-0.67 2.01 -0.34 1.02 0 0 Z " fill="#71C3FA" transform="translate(347,339)"/>
<path d="M0 0 C2.125 0.9375 2.125 0.9375 4 2 C4 2.99 4 3.98 4 5 C2.68 4.34 1.36 3.68 0 3 C-0.33 4.32 -0.66 5.64 -1 7 C-1.66 6.67 -2.32 6.34 -3 6 C-2.625 3.5625 -2.625 3.5625 -2 1 C-1.34 0.67 -0.68 0.34 0 0 Z " fill="#66C1FB" transform="translate(351,370)"/>
<path d="M0 0 C0.33 0.66 0.66 1.32 1 2 C-0.32 2 -1.64 2 -3 2 C-3 2.99 -3 3.98 -3 5 C-3.66 5 -4.32 5 -5 5 C-5.33 5.66 -5.66 6.32 -6 7 C-6.66 5.35 -7.32 3.7 -8 2 C-5.36 1.34 -2.72 0.68 0 0 Z " fill="#80C7F9" transform="translate(364,360)"/>
<path d="M0 0 C4.51720311 -0.36625971 4.51720311 -0.36625971 6.8125 1.375 C8 3 8 3 8 5 C5.69 4.67 3.38 4.34 1 4 C0.67 2.68 0.34 1.36 0 0 Z " fill="#76AFD8" transform="translate(317,229)"/>
<path d="M0 0 C0.33 0 0.66 0 1 0 C1.33 2.31 1.66 4.62 2 7 C3.32 6.67 4.64 6.34 6 6 C5.67 6.99 5.34 7.98 5 9 C4.01 9.33 3.02 9.66 2 10 C1.34 9.67 0.68 9.34 0 9 C0 6.03 0 3.06 0 0 Z " fill="#6393B7" transform="translate(309,214)"/>
<path d="M0 0 C2.475 0.495 2.475 0.495 5 1 C4.67 2.65 4.34 4.3 4 6 C3.01 6 2.02 6 1 6 C0.67 4.02 0.34 2.04 0 0 Z " fill="#69C1FB" transform="translate(48,25)"/>
<path d="M0 0 C0.66 0 1.32 0 2 0 C2 0.99 2 1.98 2 3 C2.66 3 3.32 3 4 3 C4 5.97 4 8.94 4 12 C3.67 12 3.34 12 3 12 C3 9.69 3 7.38 3 5 C1.68 4.34 0.36 3.68 -1 3 C-0.67 2.01 -0.34 1.02 0 0 Z " fill="#5DBEFC" transform="translate(35,16)"/>
<path d="M0 0 C0.33 0.99 0.66 1.98 1 3 C1.66 3 2.32 3 3 3 C3 2.34 3 1.68 3 1 C3.99 1 4.98 1 6 1 C4.25 4.875 4.25 4.875 2 6 C1.34 5.67 0.68 5.34 0 5 C0 3.35 0 1.7 0 0 Z " fill="#527996" transform="translate(258,153)"/>
<path d="M0 0 C1.65 0.33 3.3 0.66 5 1 C5 1.99 5 2.98 5 4 C2.03 3.505 2.03 3.505 -1 3 C-0.67 2.01 -0.34 1.02 0 0 Z " fill="#06141D" transform="translate(261,324)"/>
<path d="M0 0 C1.65 0 3.3 0 5 0 C5 0.99 5 1.98 5 3 C4.34 3 3.68 3 3 3 C2.67 3.66 2.34 4.32 2 5 C1.34 3.35 0.68 1.7 0 0 Z " fill="#80C7F9" transform="translate(480,490)"/>
<path d="M0 0 C2.04119788 1.61594832 4.04072937 3.2856382 6 5 C6 5.66 6 6.32 6 7 C3.5625 6.3125 3.5625 6.3125 1 5 C0.1875 2.375 0.1875 2.375 0 0 Z " fill="#6B9FC5" transform="translate(183,248)"/>
<path d="M0 0 C3.96 1.98 3.96 1.98 8 4 C7.01 4.66 6.02 5.32 5 6 C2.5 4.6875 2.5 4.6875 0 3 C0 2.01 0 1.02 0 0 Z " fill="#6DA2C9" transform="translate(300,218)"/>
<path d="M0 0 C0.33 0 0.66 0 1 0 C1 1.98 1 3.96 1 6 C0.34 6 -0.32 6 -1 6 C-1.33 5.34 -1.66 4.68 -2 4 C-2.99 3.67 -3.98 3.34 -5 3 C-5 2.34 -5 1.68 -5 1 C-2.525 1.495 -2.525 1.495 0 2 C0 1.34 0 0.68 0 0 Z " fill="#80C7F9" transform="translate(29,7)"/>
</svg>
